<svg class="animated" id="freepik_stories-ecommerce-checkout-laptop" xmlns="http://www.w3.org/2000/svg" viewBox="0 0 750 500" version="1.1" xmlns:xlink="http://www.w3.org/1999/xlink" xmlns:svgjs="http://svgjs.com/svgjs"><style>svg#freepik_stories-ecommerce-checkout-laptop:not(.animated) .animable {opacity: 0;}svg#freepik_stories-ecommerce-checkout-laptop.animated #freepik--background-simple--inject-38 {animation: 2.3s 1 forwards ease-in slideDown;animation-delay: 0s;}svg#freepik_stories-ecommerce-checkout-laptop.animated #freepik--Box--inject-38 {animation: 1s 1 forwards cubic-bezier(.36,-0.01,.5,1.38) slideDown;animation-delay: 0s;}svg#freepik_stories-ecommerce-checkout-laptop.animated #freepik--Plant--inject-38 {animation: 2.6s 1 forwards ease-out slideUp;animation-delay: 0s;}svg#freepik_stories-ecommerce-checkout-laptop.animated #freepik--Bags--inject-38 {animation: 1s 1 forwards cubic-bezier(.36,-0.01,.5,1.38) slideDown;animation-delay: 0s;}svg#freepik_stories-ecommerce-checkout-laptop.animated #freepik--Gift--inject-38 {animation: 1s 1 forwards cubic-bezier(.36,-0.01,.5,1.38) slideDown;animation-delay: 0s;}svg#freepik_stories-ecommerce-checkout-laptop.animated #freepik--Character--inject-38 {animation: 1s 1 forwards cubic-bezier(.36,-0.01,.5,1.38) slideLeft,1.5s Infinite  linear wind;animation-delay: 0s,1s;}            @keyframes slideDown {                0% {                    opacity: 0;                    transform: translateY(-30px);                }                100% {                    opacity: 1;                    transform: translateY(0);                }            }                    @keyframes slideUp {                0% {                    opacity: 0;                    transform: translateY(30px);                }                100% {                    opacity: 1;                    transform: inherit;                }            }                    @keyframes slideLeft {                0% {                    opacity: 0;                    transform: translateX(-30px);                }                100% {                    opacity: 1;                    transform: translateX(0);                }            }                    @keyframes wind {                0% {                    transform: rotate( 0deg );                }                25% {                    transform: rotate( 1deg );                }                75% {                    transform: rotate( -1deg );                }            }        .animator-hidden { display: none; }</style><g id="freepik--background-simple--inject-38" class="animable animator-active" style="transform-origin: 373.485px 139.568px;"><path d="M643.84,24.62,642,24.8c-15.44,1.48-29,11.1-34.76,25.34a39.49,39.49,0,0,0-1.83,5.64,43.67,43.67,0,0,0,10.82,39.77c5.87,6.12,13.75,10.84,17,18.63,4.22,10.15-.94,21.43-6,31.11s-10.18,21-5.92,31.1c2.66,6.34,8.64,10.84,15,13.51,16.9,7.08,37.17,2.71,51.54-8.35s23.32-27.94,27.82-45.47c6.29-24.56,4.18-51.83-8.78-73.86S669.43,24.36,643.84,24.62Z" style="fill: rgb(245, 245, 245); transform-origin: 661.692px 108.978px;" id="elbai5hn1mau" class="animable"></path><path d="M54.21,134.53l1,.77a28.74,28.74,0,0,0,29.55,3.2,28,28,0,0,0,3.56-2,30.14,30.14,0,0,0,13-25.36c-.15-5.85-2-11.93,0-17.42,2.57-7.15,10.45-10.52,17.53-13.11s15-6,17.48-13.15c1.59-4.48.62-9.56-1.4-13.89-5.35-11.48-17.74-18.67-30.23-19.69S79.74,37.28,69.29,44.15C54.66,53.78,43.06,68.71,39.45,86S41,122.77,54.21,134.53Z" style="fill: rgb(245, 245, 245); transform-origin: 87.7263px 87.4588px;" id="elimfnbb8y02q" class="animable"></path><g id="el1n4a6uxu19c"><circle cx="186.34" cy="50.23" r="16.54" style="fill: rgb(245, 245, 245); transform-origin: 186.34px 50.23px; transform: rotate(-77.2deg);" class="animable"></circle></g><circle cx="666.58" cy="237.98" r="16.54" style="fill: rgb(245, 245, 245); transform-origin: 666.58px 237.98px;" id="eljaqniz835g" class="animable"></circle><g id="el0r3hpq217yjb"><circle cx="67.32" cy="212.65" r="32.78" style="fill: rgb(245, 245, 245); transform-origin: 67.32px 212.65px; transform: rotate(-76.72deg);" class="animable"></circle></g></g><g id="freepik--Floor--inject-38" class="animable" style="transform-origin: 367px 419.13px;"><path d="M697.14,419.13c0,.15-147.82.26-330.12.26s-330.16-.11-330.16-.26,147.79-.26,330.16-.26S697.14,419,697.14,419.13Z" style="fill: rgb(38, 50, 56); transform-origin: 367px 419.13px;" id="elw40mv5cgwpe" class="animable"></path></g><g id="freepik--Box--inject-38" class="animable" style="transform-origin: 109.945px 382.79px;"><rect x="61.96" y="346.59" width="95.97" height="72.55" style="fill: rgb(174, 116, 97); transform-origin: 109.945px 382.865px;" id="eljbhtpfov0j" class="animable"></rect><g id="elecrodu5fnvh"><g style="opacity: 0.3; transform-origin: 119.115px 356.76px;" class="animable"><path d="M121.78,355.11v-3.38h5.81v3.38a2.88,2.88,0,0,1-2.54,2.82v2.95h1.3c.45,0,.82.25.82.56h-5c0-.31.37-.56.82-.56h1.3v-2.95A2.88,2.88,0,0,1,121.78,355.11Z" style="fill-rule: evenodd; transform-origin: 124.685px 356.585px;" id="elp1x114k5vwo" class="animable"></path><path d="M110.64,354.88a4.22,4.22,0,0,1,4.1-3.15h0a4.23,4.23,0,0,1,4.1,3.15h-3.71v5.3a.82.82,0,0,0,1.64,0h.79a1.61,1.61,0,0,1-3.22,0v-5.3Z" style="fill-rule: evenodd; transform-origin: 114.74px 356.76px;" id="el1kewywqqeupj" class="animable"></path></g></g><g id="elhxx8yc1q1xq"><g style="opacity: 0.3; transform-origin: 146.03px 382.865px;" class="animable"><g id="elnmf1ufk69d"><rect x="134.13" y="346.59" width="23.8" height="72.55" class="animable" style="transform-origin: 146.03px 382.865px; transform: rotate(180deg);"></rect></g></g></g><path d="M134.08,418.41c-.13,0-.24-16.09-.24-35.93s.11-35.94.24-35.94.24,16.09.24,35.94S134.22,418.41,134.08,418.41Z" style="fill: rgb(38, 50, 56); transform-origin: 134.08px 382.475px;" id="elzujt9idu0qm" class="animable"></path><rect x="142.44" y="402.41" width="7.36" height="8.15" style="fill: rgb(255, 255, 255); transform-origin: 146.12px 406.485px;" id="elaxyk2txskwv" class="animable"></rect><g id="elg1ixqjaiqwn"><g style="opacity: 0.3; transform-origin: 96.69px 354.51px;" class="animable"><rect x="91.24" y="346.77" width="10.9" height="15.48" id="elc7dq4z2hyxe" class="animable" style="transform-origin: 96.69px 354.51px;"></rect></g></g><g id="elz0yydbyie2"><g style="opacity: 0.3; transform-origin: 96.69px 411.18px;" class="animable"><rect x="91.24" y="403.44" width="10.9" height="15.48" id="elm1sfy18maf" class="animable" style="transform-origin: 96.69px 411.18px;"></rect></g></g><path d="M62.66,346.63c0,.1,21.28.19,47.53.19s47.54-.09,47.54-.19-21.28-.19-47.54-.19S62.66,346.52,62.66,346.63Z" style="fill: rgb(38, 50, 56); transform-origin: 110.195px 346.63px;" id="eltn0n8ek4tx" class="animable"></path><path d="M106.05,387.69H89.92a.7.7,0,0,1,0-1.4h15.55l1.67-9.27H88.4a.7.7,0,1,1,0-1.39H108a.7.7,0,0,1,.68.82l-1.92,10.66A.7.7,0,0,1,106.05,387.69Z" style="fill: rgb(224, 224, 224); transform-origin: 98.1534px 381.658px;" id="elnsp1mxmtat" class="animable"></path><path d="M105.52,391.42h0l-15.36-.05a.69.69,0,0,1-.69-.61l-2.17-16.58H83a.7.7,0,0,1,0-1.39H87.9a.7.7,0,0,1,.69.6L90.76,390l14.76,0a.7.7,0,0,1,0,1.39Z" style="fill: rgb(224, 224, 224); transform-origin: 94.2599px 382.105px;" id="el9bwb1aeja0e" class="animable"></path><path d="M92.66,396.78a2.57,2.57,0,1,1,2.61-2.57A2.6,2.6,0,0,1,92.66,396.78Zm0-3.75a1.18,1.18,0,1,0,0,2.35,1.18,1.18,0,1,0,0-2.35Z" style="fill: rgb(224, 224, 224); transform-origin: 92.7px 394.21px;" id="el52mfi9lgcv3" class="animable"></path><path d="M103.26,396.78a2.57,2.57,0,1,1,2.61-2.57A2.6,2.6,0,0,1,103.26,396.78Zm0-3.75a1.18,1.18,0,1,0,1.22,1.18A1.2,1.2,0,0,0,103.26,393Z" style="fill: rgb(224, 224, 224); transform-origin: 103.3px 394.21px;" id="elqidzfe7qdec" class="animable"></path><path d="M94.9,387.69a.71.71,0,0,1-.7-.66l-.65-10.32a.69.69,0,0,1,.65-.74.71.71,0,0,1,.74.65L95.59,387a.69.69,0,0,1-.65.74Z" style="fill: rgb(224, 224, 224); transform-origin: 94.57px 381.855px;" id="eljl4n4et2si" class="animable"></path><path d="M100.8,387.69h0a.7.7,0,0,1-.66-.74l.59-10.32a.7.7,0,1,1,1.39.08L101.49,387A.7.7,0,0,1,100.8,387.69Z" style="fill: rgb(224, 224, 224); transform-origin: 101.134px 381.793px;" id="el3bnwcaf8i4x" class="animable"></path><path d="M89,382.53a.7.7,0,0,1,0-1.4l18-.17h0a.7.7,0,0,1,0,1.39l-18,.18Z" style="fill: rgb(224, 224, 224); transform-origin: 97.9582px 381.745px;" id="el5a3mtjqqd2k" class="animable"></path></g><g id="freepik--Plant--inject-38" class="animable" style="transform-origin: 657.625px 351.488px;"><path d="M658,392.26s-3.88-26.69-3.56-42.22,0-33,0-33h1.78s-1.21,30.83.11,49.42,4.79,25.8,4.79,25.8H658" style="fill: rgb(38, 50, 56); transform-origin: 657.771px 354.65px;" id="el0zhai5d9zjx" class="animable"></path><path d="M669.59,287a4.74,4.74,0,0,0-1.63-2.38c-1.14-.72-2.63-.42-3.89,0-5.41,1.92-10.2,12-12.38,17.29l7.17,24.18C671.81,314.11,674.06,298.34,669.59,287Z" style="fill: rgb(69, 90, 100); transform-origin: 661.691px 305.138px;" id="elvzugmxmupd" class="animable"></path><path d="M667.54,285.61a1.52,1.52,0,0,1-.11.31l-.35.88c-.31.76-.75,1.87-1.28,3.24-1.06,2.75-2.4,6.59-3.61,10.91s-2,8.31-2.53,11.21c-.26,1.45-.45,2.62-.57,3.44l-.15.93a1.3,1.3,0,0,1-.08.33,1.63,1.63,0,0,1,0-.33c0-.25,0-.56.09-.95.09-.82.25-2,.48-3.45A103.5,103.5,0,0,1,665.6,290c.56-1.37,1-2.47,1.38-3.21.16-.35.29-.64.4-.86S667.53,285.6,667.54,285.61Z" style="fill: rgb(38, 50, 56); transform-origin: 663.196px 301.235px;" id="eloo5x44f5grl" class="animable"></path><path d="M655.67,331.92a21.91,21.91,0,0,1-11.06-18.38c-.26-5.37,1.39-10.63,3.26-15.67a2,2,0,0,1,.76-1.14,1.93,1.93,0,0,1,1.83.29c4.89,2.78,7.85,8.09,9.43,13.49A27.27,27.27,0,0,1,661,321.6a18.43,18.43,0,0,1-5.33,10.32" style="fill: rgb(69, 90, 100); transform-origin: 652.868px 314.269px;" id="elw0ct6218ddb" class="animable"></path><path d="M655.67,331.92a1.14,1.14,0,0,1,0-.32l0-.93c0-.81,0-2-.1-3.41a93.77,93.77,0,0,0-1.25-11.17c-.75-4.33-1.65-8.21-2.32-11-.33-1.37-.6-2.5-.8-3.32l-.2-.91a2,2,0,0,1-.06-.32,1.77,1.77,0,0,1,.12.31c.06.23.15.53.26.89.22.78.52,1.9.88,3.3.72,2.79,1.66,6.67,2.41,11a81.51,81.51,0,0,1,1.17,11.21c0,1.44,0,2.61,0,3.42,0,.38,0,.68,0,.93A1.64,1.64,0,0,1,655.67,331.92Z" style="fill: rgb(38, 50, 56); transform-origin: 653.36px 316.23px;" id="ela3qowe5c5lm" class="animable"></path><g id="el5r4e2ddcihg"><g style="opacity: 0.3; transform-origin: 652.868px 314.269px;" class="animable"><path d="M655.67,331.92a21.91,21.91,0,0,1-11.06-18.38c-.26-5.37,1.39-10.63,3.26-15.67a2,2,0,0,1,.76-1.14,1.93,1.93,0,0,1,1.83.29c4.89,2.78,7.85,8.09,9.43,13.49A27.27,27.27,0,0,1,661,321.6a18.43,18.43,0,0,1-5.33,10.32" id="elwxcfcu98is8" class="animable" style="transform-origin: 652.868px 314.269px;"></path></g></g><path d="M663.26,372.76c6.62,1.45,12.07,6.12,18.46,8.39,4.22,1.5,9,2,12.38,5-.81-2-2.73-3.41-4.6-4.57a82.11,82.11,0,0,0-16.73-8c-3-1-6.26-1.9-9.32-1.05" style="fill: rgb(69, 90, 100); transform-origin: 678.68px 379.171px;" id="elsjs6qwe6haa" class="animable"></path><path d="M653.69,378.66c-8.29-.14-17-7.2-25.27-7.62,8.63-2.79,21-.51,25.27,7.62" style="fill: rgb(69, 90, 100); transform-origin: 641.055px 374.282px;" id="elqpc9qp8drl" class="animable"></path><path d="M656.93,358.77a26.91,26.91,0,0,1,13.25-.9,79.58,79.58,0,0,1,12.94,3.51c-.42-2.87-2.75-5-4.94-6.95a34.51,34.51,0,0,0-5.2-4,11.53,11.53,0,0,0-6.23-1.76,9.84,9.84,0,0,0-6.87,3.46,11.46,11.46,0,0,0-3,6.63" style="fill: rgb(69, 90, 100); transform-origin: 670px 355.025px;" id="elv6ft8gr0sh" class="animable"></path><path d="M639.91,349.61c-5.21-4.45-13.12-4-20-3.86a162.33,162.33,0,0,1,31,19.31C651.2,360.21,646.51,355.24,639.91,349.61Z" style="fill: rgb(69, 90, 100); transform-origin: 635.416px 355.364px;" id="elxkfgi9bnfkg" class="animable"></path><g id="elen3nclua92a"><g style="opacity: 0.3; transform-origin: 635.416px 355.364px;" class="animable"><path d="M639.91,349.61c-5.21-4.45-13.12-4-20-3.86a162.33,162.33,0,0,1,31,19.31C651.2,360.21,646.51,355.24,639.91,349.61Z" id="eljtw6j0gm3g" class="animable" style="transform-origin: 635.416px 355.364px;"></path></g></g><path d="M659.28,343.46a58.3,58.3,0,0,1,8-4.66c2.75-1.25,5.31-3.24,8-4.67,3.44-1.87,6.42-4.46,9.57-6.76s6.63-4.4,10.49-5a20.57,20.57,0,0,0-9.54.55,61.74,61.74,0,0,0-9,3.5c-4.07,1.83-8.21,3.71-11.54,6.69s-6.33,5.91-6,10.36" style="fill: rgb(69, 90, 100); transform-origin: 677.288px 332.76px;" id="el8lo581gp1ce" class="animable"></path><path d="M681.57,378.66l-.27-.12-.72-.37c-.62-.33-1.52-.83-2.65-1.39-.56-.3-1.18-.61-1.85-.92s-1.39-.66-2.15-1a31.49,31.49,0,0,0-5.11-1.78,10.91,10.91,0,0,0-5.31-.13,15,15,0,0,0-2.26.67,12.35,12.35,0,0,0-1.82.93,11.66,11.66,0,0,0-2.28,1.89c-.48.52-.72.83-.74.82l.15-.25c.11-.15.27-.37.5-.64a10.52,10.52,0,0,1,2.26-2,12.14,12.14,0,0,1,1.84-1,15.64,15.64,0,0,1,2.28-.71,11.1,11.1,0,0,1,5.45.11,30.4,30.4,0,0,1,5.15,1.82c.77.34,1.49.68,2.15,1s1.29.64,1.84.95c1.12.59,2,1.11,2.61,1.48l.69.42A1.19,1.19,0,0,1,681.57,378.66Z" style="fill: rgb(38, 50, 56); transform-origin: 668.99px 375.516px;" id="elfh73g00l0xk" class="animable"></path><path d="M647.51,374.55a1.73,1.73,0,0,1,.52.15,11.15,11.15,0,0,1,1.35.59,16.79,16.79,0,0,1,4,2.8,16.57,16.57,0,0,1,3,3.85,10.67,10.67,0,0,1,.64,1.33,2,2,0,0,1,.18.51s-.36-.68-1-1.73a18.4,18.4,0,0,0-6.84-6.58C648.2,374.88,647.49,374.6,647.51,374.55Z" style="fill: rgb(38, 50, 56); transform-origin: 652.355px 379.165px;" id="elkcsywxaf9jq" class="animable"></path><path d="M629.16,349.2a1.3,1.3,0,0,1,.36.1l1,.36,1.57.58c.61.22,1.28.56,2,.89A47.61,47.61,0,0,1,644.9,358a52.61,52.61,0,0,1,5,4.95,54.09,54.09,0,0,1,3.58,4.53c.94,1.34,1.66,2.46,2.15,3.23.24.36.42.66.57.89a1.21,1.21,0,0,1,.18.32l-.23-.29c-.14-.19-.35-.48-.61-.86-.53-.75-1.27-1.85-2.23-3.17s-2.18-2.85-3.61-4.47a56,56,0,0,0-5-4.91A50.56,50.56,0,0,0,634,351.32c-.74-.34-1.4-.69-2-.93l-1.55-.63-1-.4Z" style="fill: rgb(38, 50, 56); transform-origin: 642.77px 360.56px;" id="elwonmdatzq4" class="animable"></path><path d="M669.37,354.11a2.64,2.64,0,0,1-.66-.09l-.76-.14c-.3-.06-.65-.06-1-.1a10.52,10.52,0,0,0-5.7,1.13,10.21,10.21,0,0,0-2.59,1.92,11.89,11.89,0,0,0-1.67,2.06,17.91,17.91,0,0,0-1.14,2.18,2.67,2.67,0,0,1,.17-.65,9.65,9.65,0,0,1,.79-1.64,11.54,11.54,0,0,1,1.65-2.14,10.11,10.11,0,0,1,8.51-3.06c.38.05.73.07,1,.14l.76.19A3,3,0,0,1,669.37,354.11Z" style="fill: rgb(38, 50, 56); transform-origin: 662.61px 357.29px;" id="elggviu0ok06e" class="animable"></path><path d="M677.7,328.26a1.13,1.13,0,0,1-.31.19l-.93.51c-.8.43-2,1.07-3.37,1.9s-3,1.87-4.8,3.12a40.39,40.39,0,0,0-5.36,4.49,13.76,13.76,0,0,0-2.19,2.84c-.55,1.05-1.07,2.05-1.54,3a56.92,56.92,0,0,0-2.31,5.25,32.65,32.65,0,0,0-1.12,3.69c-.21.88-.29,1.39-.31,1.38a1.71,1.71,0,0,1,0-.37c0-.24.08-.59.17-1a28.55,28.55,0,0,1,1-3.74,50.6,50.6,0,0,1,2.25-5.29c.47-1,1-2,1.53-3a13.47,13.47,0,0,1,2.24-2.91,38.59,38.59,0,0,1,5.41-4.51c1.78-1.25,3.44-2.26,4.86-3.08s2.6-1.42,3.42-1.83l1-.45Z" style="fill: rgb(38, 50, 56); transform-origin: 666.575px 341.445px;" id="elb2vlezde5ue" class="animable"></path><path d="M654.45,353.36a4.17,4.17,0,0,1-.16-.7c-.1-.51-.22-1.15-.36-1.91a54.31,54.31,0,0,0-1.57-6.22,53.64,53.64,0,0,0-2.37-6q-.48-1.06-.81-1.77a3.51,3.51,0,0,1-.26-.67,3.08,3.08,0,0,1,.37.62c.22.4.53,1,.89,1.73a43.4,43.4,0,0,1,2.46,6,41.85,41.85,0,0,1,1.49,6.27c.13.81.23,1.48.27,1.94A2.71,2.71,0,0,1,654.45,353.36Z" style="fill: rgb(38, 50, 56); transform-origin: 651.688px 344.725px;" id="elij8a93ywgj" class="animable"></path><path d="M653.85,334.5a22.3,22.3,0,0,0-2.69-8.95,29.54,29.54,0,0,0-20-14.93l18.54,27.63,2.4,4.93A14.18,14.18,0,0,0,653.85,334.5Z" style="fill: rgb(69, 90, 100); transform-origin: 642.555px 326.9px;" id="elour46n0rftj" class="animable"></path><rect x="637.34" y="388.96" width="43.11" height="7.64" style="fill: rgb(38, 50, 56); transform-origin: 658.895px 392.78px;" id="elpzo8t56w8fm" class="animable"></rect><polygon points="640.56 395.08 644.23 418.79 672.85 418.79 677.23 395.08 640.56 395.08" style="fill: rgb(38, 50, 56); transform-origin: 658.895px 406.935px;" id="el6a2mop8pakl" class="animable"></polygon><path d="M680.43,396.61c0,.08-9.73.15-21.72.15s-21.72-.07-21.72-.15,9.72-.15,21.72-.15S680.43,396.53,680.43,396.61Z" style="fill: rgb(38, 50, 56); transform-origin: 658.71px 396.61px;" id="elu45x07cir5a" class="animable"></path></g><g id="freepik--Device--inject-38" class="animable" style="transform-origin: 364.54px 249.455px;"><path d="M576.11,413.79H153.34A25.31,25.31,0,0,1,128,388.48V98.33a18.45,18.45,0,0,1,18.45-18.45H584a17.44,17.44,0,0,1,17.44,17.44V388.48A25.31,25.31,0,0,1,576.11,413.79Z" style="fill: rgb(69, 90, 100); transform-origin: 364.72px 246.835px;" id="elajv903e672p" class="animable"></path><path d="M600.91,418.87H132.7a24.46,24.46,0,0,1-24.46-24.46V390.6a.94.94,0,0,1,.94-1h511a.94.94,0,0,1,.94,1v8.08A20.19,20.19,0,0,1,600.91,418.87Z" style="fill: rgb(69, 90, 100); transform-origin: 364.68px 404.235px;" id="elw6lq2489p8g" class="animable"></path><path d="M600.91,418.87l.7-.05a16.84,16.84,0,0,0,2-.18,20.23,20.23,0,0,0,12.1-6.39,20.25,20.25,0,0,0,3.79-6A20.61,20.61,0,0,0,621,398.1v-7c0-.42,0-.82-.27-1.08s-.7-.22-1.12-.23l-114,.09-376.21.07H109.23a.75.75,0,0,0-.31.06.68.68,0,0,0-.39.45,4.6,4.6,0,0,0,0,.78v1.71c0,1.14,0,2.26.1,3.38a23.14,23.14,0,0,0,1.44,6.53,27.85,27.85,0,0,0,1.35,3.06,26.4,26.4,0,0,0,1.81,2.81,24.31,24.31,0,0,0,10.35,8.12,25.84,25.84,0,0,0,6.4,1.63c2.19.21,4.41.17,6.64.17h39.47l99.88,0,169.14.05,114,.09,31,.05,8.06,0,2.74,0-2.74,0-8.06,0-31,.05-114,.08-169.14.06-99.88,0H136.59c-2.22,0-4.45,0-6.7-.17a26.34,26.34,0,0,1-6.53-1.67A24.86,24.86,0,0,1,112.78,409a25.93,25.93,0,0,1-1.84-2.87,25.56,25.56,0,0,1-1.39-3.12,23.5,23.5,0,0,1-1.47-6.68c-.07-1.15-.12-2.29-.1-3.42V391.2a4.92,4.92,0,0,1,0-.91,1.2,1.2,0,0,1,.69-.8,1.37,1.37,0,0,1,.52-.1h20.14l376.21.08,114,.08h.63a1,1,0,0,1,.62.27,1.07,1.07,0,0,1,.32.6,4.46,4.46,0,0,1,0,.63v2.42c0,1.58,0,3.12,0,4.62a20.88,20.88,0,0,1-1.5,8.2,20.15,20.15,0,0,1-3.85,6,20.12,20.12,0,0,1-12.19,6.36,16,16,0,0,1-2,.16Z" style="fill: rgb(38, 50, 56); transform-origin: 364.54px 404.21px;" id="el1axzckun79g" class="animable"></path><rect x="147.44" y="100.26" width="433.24" height="273.52" rx="5.27" style="fill: rgb(38, 50, 56); transform-origin: 364.06px 237.02px;" id="eln567btzyya" class="animable"></rect><path d="M575.41,373.78a8.81,8.81,0,0,0,.91-.1,5.15,5.15,0,0,0,2.42-1.12,5.2,5.2,0,0,0,1.89-3.87v-6.17c0-9.36,0-23.16,0-40.92,0-35.54-.05-87-.09-150.5q0-23.82,0-49.87,0-6.49,0-13.13v-1.66a12.46,12.46,0,0,0-.05-1.63A5.11,5.11,0,0,0,579,102a5,5,0,0,0-2.82-1.44,8.93,8.93,0,0,0-1.65-.07H545.33l-119.28,0-273.31,0a5,5,0,0,0-3.81,1.73,4.82,4.82,0,0,0-1,1.87,7.12,7.12,0,0,0-.21,2.18V238.77q0,34.29,0,67.3v48.68c0,2.66,0,5.31,0,7.95v3.95a9.52,9.52,0,0,0,.39,3.8,5,5,0,0,0,2.55,2.63,5.18,5.18,0,0,0,1.81.45c.63,0,1.3,0,1.94,0h53.54l57.9,0,103.93,0,150.49.08,40.92.05,10.64,0c2.39,0,3.62,0,3.62,0l-3.62,0-10.64,0-40.92.05L369.74,374l-103.93,0H154.37c-.65,0-1.29,0-2,0a5.51,5.51,0,0,1-4.77-3.37,5.32,5.32,0,0,1-.42-2V338.71q0-16.14,0-32.64v-67.3q0-34.29,0-69.74V106.3a7.68,7.68,0,0,1,.22-2.32,5.26,5.26,0,0,1,1.14-2.07,5.5,5.5,0,0,1,4.2-1.91l273.31,0,119.28,0h29.22a9.87,9.87,0,0,1,1.71.07,5.49,5.49,0,0,1,4.57,4.63,13.85,13.85,0,0,1,.06,1.69v1.66q0,6.63,0,13.13,0,26,0,49.87c0,63.54-.06,115-.08,150.5,0,17.76,0,31.56,0,40.92,0,2.34,0,4.4,0,6.18a5.25,5.25,0,0,1-4.39,5,4.41,4.41,0,0,1-.68.07Z" style="fill: rgb(38, 50, 56); transform-origin: 364.031px 236.995px;" id="ellskm9wv9es" class="animable"></path><polygon points="318.06 389.09 324.42 399.89 413.97 399.89 419.88 389.09 318.06 389.09" style="fill: rgb(38, 50, 56); transform-origin: 368.97px 394.49px;" id="elemdgoorfr" class="animable"></polygon><path d="M368.22,91a3.55,3.55,0,1,1-3.55-3.55A3.55,3.55,0,0,1,368.22,91Z" style="fill: rgb(38, 50, 56); transform-origin: 364.67px 91px;" id="elff69fcs9h0d" class="animable"></path><rect x="164.72" y="108.98" width="400.01" height="252.13" style="fill: rgb(255, 255, 255); transform-origin: 364.725px 235.045px;" id="eltlbekmak0i" class="animable"></rect><rect x="164.72" y="132.07" width="400.01" height="25.28" style="fill: rgb(224, 224, 224); transform-origin: 364.725px 144.71px;" id="elqgs4idm5ew" class="animable"></rect><path d="M181.1,143.66a3.86,3.86,0,1,1-3.85-3.84A3.86,3.86,0,0,1,181.1,143.66Z" style="fill: rgb(255, 255, 255); transform-origin: 177.24px 143.68px;" id="elraiipc6hwi" class="animable"></path><path d="M192.36,143.66a3.86,3.86,0,1,1-3.86-3.84A3.86,3.86,0,0,1,192.36,143.66Z" style="fill: rgb(255, 255, 255); transform-origin: 188.5px 143.68px;" id="elj1k7arj2p4i" class="animable"></path><path d="M203.61,143.66a3.86,3.86,0,1,1-3.85-3.84A3.85,3.85,0,0,1,203.61,143.66Z" style="fill: rgb(255, 255, 255); transform-origin: 199.75px 143.68px;" id="eln97jqxryw8n" class="animable"></path><rect x="215.65" y="177.65" width="46.98" height="46.98" rx="3.84" style="fill: rgb(235, 235, 235); transform-origin: 239.14px 201.14px;" id="elcvusxc1rkb" class="animable"></rect><rect x="204.7" y="235.04" width="68.89" height="10.59" rx="4.26" style="fill: rgb(235, 235, 235); transform-origin: 239.145px 240.335px;" id="elu2b29tx04co" class="animable"></rect><rect x="308.41" y="168.79" width="46.98" height="46.98" rx="3.84" style="fill: rgb(235, 235, 235); transform-origin: 331.9px 192.28px;" id="el5m21onca5if" class="animable"></rect><rect x="297.46" y="226.18" width="68.89" height="10.59" rx="4.26" style="fill: rgb(235, 235, 235); transform-origin: 331.905px 231.475px;" id="elcgpktqmvu0v" class="animable"></rect><rect x="215.45" y="271.43" width="46.98" height="46.98" rx="3.84" style="fill: rgb(235, 235, 235); transform-origin: 238.94px 294.92px;" id="elc03v98jqpnb" class="animable"></rect><rect x="204.5" y="328.82" width="68.89" height="10.59" rx="4.26" style="fill: rgb(235, 235, 235); transform-origin: 238.945px 334.115px;" id="elxmolv8lijdc" class="animable"></rect><rect x="310.13" y="261.75" width="46.98" height="46.98" rx="3.84" style="fill: rgb(235, 235, 235); transform-origin: 333.62px 285.24px;" id="el75inbt8i52f" class="animable"></rect><rect x="299.18" y="319.14" width="68.89" height="10.59" rx="4.26" style="fill: rgb(235, 235, 235); transform-origin: 333.625px 324.435px;" id="elzhyg1vf2oz" class="animable"></rect><rect x="449.76" y="165.49" width="54.24" height="54.24" rx="3.84" style="fill: rgb(38, 50, 56); transform-origin: 476.88px 192.61px;" id="el2n2k51wh5zd" class="animable"></rect><path d="M485.92,197.07H468a.51.51,0,0,1-.5-.5.5.5,0,0,1,.5-.5h17.5l2-11.09H466.31a.5.5,0,0,1-.5-.5.51.51,0,0,1,.5-.5h21.75a.51.51,0,0,1,.38.18.47.47,0,0,1,.11.41l-2.14,12.08A.5.5,0,0,1,485.92,197.07Z" style="fill: rgb(255, 255, 255); transform-origin: 477.185px 190.525px;" id="elm5jia2bct7" class="animable"></path><path d="M485.32,201.29h0l-17.06,0a.5.5,0,0,1-.49-.44l-2.45-19h-5a.51.51,0,0,1-.5-.5.5.5,0,0,1,.5-.5h5.48a.49.49,0,0,1,.5.43l2.44,19,16.63,0a.5.5,0,0,1,.49.51A.49.49,0,0,1,485.32,201.29Z" style="fill: rgb(255, 255, 255); transform-origin: 472.84px 191.071px;" id="elo3edbvyck7q" class="animable"></path><path d="M471.05,207.37a2.63,2.63,0,1,1,2.62-2.63A2.63,2.63,0,0,1,471.05,207.37Zm0-4.25a1.63,1.63,0,1,0,1.62,1.62A1.63,1.63,0,0,0,471.05,203.12Z" style="fill: rgb(255, 255, 255); transform-origin: 471.04px 204.74px;" id="ell5wfpn6p7qs" class="animable"></path><path d="M482.82,207.37a2.63,2.63,0,1,1,2.63-2.63A2.63,2.63,0,0,1,482.82,207.37Zm0-4.25a1.63,1.63,0,1,0,1.63,1.62A1.63,1.63,0,0,0,482.82,203.12Z" style="fill: rgb(255, 255, 255); transform-origin: 482.82px 204.74px;" id="el2zq7pdtwzu5" class="animable"></path><path d="M473.53,197.07a.51.51,0,0,1-.5-.47l-.72-11.7a.5.5,0,0,1,.46-.53.49.49,0,0,1,.53.47l.73,11.7a.5.5,0,0,1-.46.53Z" style="fill: rgb(255, 255, 255); transform-origin: 473.17px 190.719px;" id="el030cwhqcgf56" class="animable"></path><path d="M480.08,197.07h0a.5.5,0,0,1-.47-.53l.65-11.7a.5.5,0,0,1,.53-.47.51.51,0,0,1,.47.53l-.66,11.7A.5.5,0,0,1,480.08,197.07Z" style="fill: rgb(255, 255, 255); transform-origin: 480.435px 190.72px;" id="elu29b495arh" class="animable"></path><path d="M467,191.22a.5.5,0,0,1,0-1l20-.2a.53.53,0,0,1,.51.5.5.5,0,0,1-.5.5l-20,.2Z" style="fill: rgb(255, 255, 255); transform-origin: 477.005px 190.62px;" id="elqg11w20rwx" class="animable"></path><rect x="432.35" y="259.3" width="49.13" height="11.22" rx="3.77" style="fill: rgb(224, 224, 224); transform-origin: 456.915px 264.91px;" id="el49v67bxftkq" class="animable"></rect><rect x="432.35" y="237.98" width="49.13" height="11.22" rx="3.77" style="fill: rgb(224, 224, 224); transform-origin: 456.915px 243.59px;" id="elu1ddrk1qj5e" class="animable"></rect><rect x="427.08" y="291.79" width="91.12" height="30.73" rx="12.36" style="fill: rgb(38, 50, 56); transform-origin: 472.64px 307.155px;" id="el39lrh7yot45" class="animable"></rect><path d="M470.84,305.7c0,1.54-1.16,2.5-3,2.5h-1.18V310h-1.92v-6.78h3.1C469.68,303.19,470.84,304.15,470.84,305.7Zm-1.93,0c0-.63-.4-1-1.2-1h-1.06v2h1.06C468.51,306.69,468.91,306.32,468.91,305.7Z" style="fill: rgb(255, 255, 255); transform-origin: 467.79px 306.61px;" id="elchar9ueev6j" class="animable"></path><path d="M476,308.66h-2.87l-.53,1.31h-2l3-6.78h1.89l3,6.78h-2Zm-.56-1.42-.87-2.17-.87,2.17Z" style="fill: rgb(255, 255, 255); transform-origin: 474.545px 306.58px;" id="el2fkf2n6dma9" class="animable"></path><path d="M482.26,307.54V310h-1.92v-2.46l-2.58-4.32h2l1.61,2.69,1.61-2.69h1.86Z" style="fill: rgb(255, 255, 255); transform-origin: 481.3px 306.61px;" id="eljsk44dfngr" class="animable"></path><path d="M384.83,359.79c-.15,0-.26-50.81-.26-113.46s.11-113.47.26-113.47.26,50.8.26,113.47S385,359.79,384.83,359.79Z" style="fill: rgb(235, 235, 235); transform-origin: 384.83px 246.325px;" id="el7l5o0hl61y" class="animable"></path><g id="elwww3gd83ctc"><circle cx="259.93" cy="179.84" r="10.58" style="fill: rgb(38, 50, 56); transform-origin: 259.93px 179.84px; transform: rotate(-80.89deg);" class="animable"></circle></g><path d="M259,184.09a1,1,0,0,1-.62-.21L254.66,181a1,1,0,0,1,1.23-1.58l3,2.34,5-5.79a1,1,0,0,1,1.52,1.3l-5.59,6.51A1,1,0,0,1,259,184.09Z" style="fill: rgb(255, 255, 255); transform-origin: 259.963px 179.857px;" id="ela3zgrl3hc8w" class="animable"></path><g id="elwrvqpxs595p"><circle cx="259.93" cy="273.77" r="10.58" style="fill: rgb(69, 90, 100); transform-origin: 259.93px 273.77px; transform: rotate(-21.96deg);" class="animable"></circle></g><path d="M259,278a1,1,0,0,1-.62-.21l-3.73-2.92a1,1,0,0,1,1.23-1.58l3,2.34,5-5.79a1,1,0,0,1,1.52,1.3l-5.59,6.51A1,1,0,0,1,259,278Z" style="fill: rgb(255, 255, 255); transform-origin: 259.952px 273.746px;" id="elt0csn0vx74i" class="animable"></path><rect x="503.61" y="237.98" width="12.57" height="10.64" rx="4.28" style="fill: rgb(224, 224, 224); transform-origin: 509.895px 243.3px;" id="el691od5yl86u" class="animable"></rect><rect x="504.18" y="260.35" width="12.57" height="10.64" rx="4.28" style="fill: rgb(224, 224, 224); transform-origin: 510.465px 265.67px;" id="elp0fcfznl85m" class="animable"></rect><path d="M146.66,99.89h36.11a0,0,0,0,1,0,0v20.63A14.53,14.53,0,0,1,168.24,135h-7a14.53,14.53,0,0,1-14.53-14.53V99.89A0,0,0,0,1,146.66,99.89Z" style="fill: rgb(38, 50, 56); transform-origin: 164.715px 117.445px;" id="elfvohtrmhbwn" class="animable"></path><path d="M182.77,99.89h36.11a0,0,0,0,1,0,0v20.63A14.53,14.53,0,0,1,204.35,135h-7a14.53,14.53,0,0,1-14.53-14.53V99.89A0,0,0,0,1,182.77,99.89Z" style="fill: rgb(38, 50, 56); transform-origin: 200.825px 117.445px;" id="elp8ebbinsryq" class="animable"></path><path d="M218.88,99.89H255a0,0,0,0,1,0,0v20.63A14.53,14.53,0,0,1,240.46,135h-7a14.53,14.53,0,0,1-14.53-14.53V99.89A0,0,0,0,1,218.88,99.89Z" style="fill: rgb(38, 50, 56); transform-origin: 236.94px 117.445px;" id="eloitu53rblag" class="animable"></path><path d="M255,99.89h36.29a0,0,0,0,1,0,0v20.63A14.53,14.53,0,0,1,276.75,135h-7.22A14.53,14.53,0,0,1,255,120.51V99.89A0,0,0,0,1,255,99.89Z" style="fill: rgb(38, 50, 56); transform-origin: 273.145px 117.445px;" id="eldgcg8fgjtvf" class="animable"></path><path d="M291.28,99.89h36.11a0,0,0,0,1,0,0v20.63A14.53,14.53,0,0,1,312.86,135h-7a14.53,14.53,0,0,1-14.53-14.53V99.89A0,0,0,0,1,291.28,99.89Z" style="fill: rgb(38, 50, 56); transform-origin: 309.335px 117.445px;" id="elrf4urgwc0jk" class="animable"></path><path d="M327.39,99.89H363.5a0,0,0,0,1,0,0v20.63A14.53,14.53,0,0,1,349,135h-7a14.53,14.53,0,0,1-14.53-14.53V99.89A0,0,0,0,1,327.39,99.89Z" style="fill: rgb(38, 50, 56); transform-origin: 345.445px 117.445px;" id="elt1404t8zlw" class="animable"></path><path d="M363.5,99.89h36.11a0,0,0,0,1,0,0v20.63A14.53,14.53,0,0,1,385.08,135h-7a14.53,14.53,0,0,1-14.53-14.53V99.89A0,0,0,0,1,363.5,99.89Z" style="fill: rgb(38, 50, 56); transform-origin: 381.555px 117.445px;" id="elnael93r4dl" class="animable"></path><path d="M399.61,99.89h36.71a0,0,0,0,1,0,0v20.63A14.53,14.53,0,0,1,421.79,135h-7.65a14.53,14.53,0,0,1-14.53-14.53V99.89A0,0,0,0,1,399.61,99.89Z" style="fill: rgb(38, 50, 56); transform-origin: 417.965px 117.445px;" id="elrdxowhtto" class="animable"></path><path d="M435.9,99.89H472a0,0,0,0,1,0,0v20.63A14.53,14.53,0,0,1,457.47,135h-7a14.53,14.53,0,0,1-14.53-14.53V99.89A0,0,0,0,1,435.9,99.89Z" style="fill: rgb(38, 50, 56); transform-origin: 453.95px 117.445px;" id="ele8w13utvsll" class="animable"></path><path d="M472,99.89h36.11a0,0,0,0,1,0,0v20.63A14.53,14.53,0,0,1,493.59,135h-7A14.53,14.53,0,0,1,472,120.51V99.89A0,0,0,0,1,472,99.89Z" style="fill: rgb(38, 50, 56); transform-origin: 490.055px 117.445px;" id="elnahtgbuf1ba" class="animable"></path><path d="M508.12,99.89h36.11a0,0,0,0,1,0,0v20.63A14.53,14.53,0,0,1,529.7,135h-7a14.53,14.53,0,0,1-14.53-14.53V99.89A0,0,0,0,1,508.12,99.89Z" style="fill: rgb(38, 50, 56); transform-origin: 526.175px 117.445px;" id="elbk7lpad48e" class="animable"></path><path d="M544.23,99.89h36.11a0,0,0,0,1,0,0v20.63A14.53,14.53,0,0,1,565.81,135h-7a14.53,14.53,0,0,1-14.53-14.53V99.89A0,0,0,0,1,544.23,99.89Z" style="fill: rgb(38, 50, 56); transform-origin: 562.285px 117.445px;" id="elf05cvg8gfae" class="animable"></path><g id="elp0fehkrured"><g style="opacity: 0.3; transform-origin: 200.825px 117.445px;" class="animable"><path d="M182.77,99.89h36.11a0,0,0,0,1,0,0v20.63A14.53,14.53,0,0,1,204.35,135h-7a14.53,14.53,0,0,1-14.53-14.53V99.89A0,0,0,0,1,182.77,99.89Z" style="fill: rgb(255, 255, 255); transform-origin: 200.825px 117.445px;" id="elrnfkh5v7xp" class="animable"></path></g></g><g id="elfdd2vw06ifl"><g style="opacity: 0.3; transform-origin: 273.145px 117.445px;" class="animable"><path d="M255,99.89h36.29a0,0,0,0,1,0,0v20.63A14.53,14.53,0,0,1,276.75,135h-7.22A14.53,14.53,0,0,1,255,120.51V99.89A0,0,0,0,1,255,99.89Z" style="fill: rgb(255, 255, 255); transform-origin: 273.145px 117.445px;" id="elf706xehf78h" class="animable"></path></g></g><g id="elce4il0xna9i"><g style="opacity: 0.3; transform-origin: 345.445px 117.445px;" class="animable"><path d="M327.39,99.89H363.5a0,0,0,0,1,0,0v20.63A14.53,14.53,0,0,1,349,135h-7a14.53,14.53,0,0,1-14.53-14.53V99.89A0,0,0,0,1,327.39,99.89Z" style="fill: rgb(255, 255, 255); transform-origin: 345.445px 117.445px;" id="el3xkdro9mie" class="animable"></path></g></g><g id="el20z2j1jzrhk"><g style="opacity: 0.3; transform-origin: 417.965px 117.445px;" class="animable"><path d="M399.61,99.89h36.71a0,0,0,0,1,0,0v20.63A14.53,14.53,0,0,1,421.79,135h-7.65a14.53,14.53,0,0,1-14.53-14.53V99.89A0,0,0,0,1,399.61,99.89Z" style="fill: rgb(255, 255, 255); transform-origin: 417.965px 117.445px;" id="el58qsxj3ydw9" class="animable"></path></g></g><g id="elk9vmmoyms2n"><g style="opacity: 0.3; transform-origin: 490.055px 117.445px;" class="animable"><path d="M472,99.89h36.11a0,0,0,0,1,0,0v20.63A14.53,14.53,0,0,1,493.59,135h-7A14.53,14.53,0,0,1,472,120.51V99.89A0,0,0,0,1,472,99.89Z" style="fill: rgb(255, 255, 255); transform-origin: 490.055px 117.445px;" id="elolsk7lbmv5j" class="animable"></path></g></g><g id="elksj1vqlfx4"><g style="opacity: 0.3; transform-origin: 562.285px 117.445px;" class="animable"><path d="M544.23,99.89h36.11a0,0,0,0,1,0,0v20.63A14.53,14.53,0,0,1,565.81,135h-7a14.53,14.53,0,0,1-14.53-14.53V99.89A0,0,0,0,1,544.23,99.89Z" style="fill: rgb(255, 255, 255); transform-origin: 562.285px 117.445px;" id="elhabeiid3s67" class="animable"></path></g></g><path d="M182.77,123.25c-.14,0-.26-5.23-.26-11.68s.12-11.68.26-11.68.26,5.23.26,11.68S182.92,123.25,182.77,123.25Z" style="fill: rgb(38, 50, 56); transform-origin: 182.77px 111.57px;" id="el9jf1beok9d5" class="animable"></path><path d="M218.62,123.25c-.14,0-.26-5.23-.26-11.68s.12-11.68.26-11.68.26,5.23.26,11.68S218.77,123.25,218.62,123.25Z" style="fill: rgb(38, 50, 56); transform-origin: 218.62px 111.57px;" id="elftzm0yzd3s" class="animable"></path><path d="M255,123.25c-.14,0-.26-5.23-.26-11.68s.12-11.68.26-11.68.26,5.23.26,11.68S255.14,123.25,255,123.25Z" style="fill: rgb(38, 50, 56); transform-origin: 255px 111.57px;" id="el45scduxwtvl" class="animable"></path><path d="M291.28,123c-.15,0-.26-5.24-.26-11.69s.11-11.68.26-11.68.26,5.23.26,11.68S291.42,123,291.28,123Z" style="fill: rgb(38, 50, 56); transform-origin: 291.28px 111.315px;" id="elgztqqo2aid" class="animable"></path><path d="M327.39,122.72c-.14,0-.26-5.11-.26-11.42s.12-11.41.26-11.41.26,5.11.26,11.41S327.53,122.72,327.39,122.72Z" style="fill: rgb(38, 50, 56); transform-origin: 327.39px 111.305px;" id="elohro9jsjq1p" class="animable"></path><path d="M363.83,122.31c-.14,0-.26-5.11-.26-11.41s.12-11.42.26-11.42.27,5.11.27,11.42S364,122.31,363.83,122.31Z" style="fill: rgb(38, 50, 56); transform-origin: 363.835px 110.895px;" id="eliapxxqc33qq" class="animable"></path><path d="M399.61,121.9c-.14,0-.26-4.93-.26-11s.12-11,.26-11,.26,4.92.26,11S399.75,121.9,399.61,121.9Z" style="fill: rgb(38, 50, 56); transform-origin: 399.61px 110.9px;" id="el1j45ldypph9" class="animable"></path><path d="M436.11,121.9c-.14,0-.26-4.93-.26-11s.12-11,.26-11,.26,4.92.26,11S436.25,121.9,436.11,121.9Z" style="fill: rgb(38, 50, 56); transform-origin: 436.11px 110.9px;" id="eley712lupboj" class="animable"></path><path d="M472,121.9c-.15,0-.26-4.93-.26-11s.11-11,.26-11,.26,4.92.26,11S472.15,121.9,472,121.9Z" style="fill: rgb(38, 50, 56); transform-origin: 472px 110.9px;" id="elhbrmlls9n7r" class="animable"></path><path d="M508.27,121.9c-.14,0-.26-4.93-.26-11s.12-11,.26-11,.26,4.92.26,11S508.41,121.9,508.27,121.9Z" style="fill: rgb(38, 50, 56); transform-origin: 508.27px 110.9px;" id="el4q98b1ljeyw" class="animable"></path><path d="M544.54,121.9c-.15,0-.26-4.93-.26-11s.11-11,.26-11,.26,4.92.26,11S544.68,121.9,544.54,121.9Z" style="fill: rgb(38, 50, 56); transform-origin: 544.54px 110.9px;" id="el8587p45soc" class="animable"></path></g><g id="freepik--Bags--inject-38" class="animable" style="transform-origin: 558.04px 347.111px;"><path d="M574.52,320.31s-.09-.62-.3-1.72a21.68,21.68,0,0,0-1.38-4.53,17.31,17.31,0,0,0-3.91-5.74,10.93,10.93,0,0,0-15.36-.05,17.16,17.16,0,0,0-3.93,5.73,21.73,21.73,0,0,0-1.4,4.52c-.21,1.1-.26,1.72-.31,1.72a2.32,2.32,0,0,1,0-.46c0-.3.06-.73.14-1.29a19.53,19.53,0,0,1,1.28-4.61,17.07,17.07,0,0,1,3.95-5.89,11.23,11.23,0,0,1,15.89.05,17.25,17.25,0,0,1,3.92,5.91,19.93,19.93,0,0,1,1.26,4.61c.09.56.12,1,.14,1.3A1.73,1.73,0,0,1,574.52,320.31Z" style="fill: rgb(69, 90, 100); transform-origin: 561.224px 312.516px;" id="el9hhqn2pf454" class="animable"></path><path d="M579.11,320.31s-.09-.62-.3-1.72a21.68,21.68,0,0,0-1.38-4.53,17.31,17.31,0,0,0-3.91-5.74,10.91,10.91,0,0,0-15.35-.05,17.06,17.06,0,0,0-3.94,5.73,21.73,21.73,0,0,0-1.4,4.52c-.21,1.1-.26,1.72-.3,1.72a1.38,1.38,0,0,1,0-.46c0-.3.06-.73.14-1.29a20,20,0,0,1,1.28-4.61A17.07,17.07,0,0,1,557.9,308a11.23,11.23,0,0,1,15.89.05,17.25,17.25,0,0,1,3.92,5.91,19.93,19.93,0,0,1,1.26,4.61c.09.56.12,1,.14,1.3A1.73,1.73,0,0,1,579.11,320.31Z" style="fill: rgb(69, 90, 100); transform-origin: 565.817px 312.521px;" id="elsxm9pfxwak" class="animable"></path><polygon points="534.8 318.67 586.64 318.27 587.77 388.95 529.6 388.95 534.8 318.67" style="fill: rgb(235, 235, 235); transform-origin: 558.685px 353.61px;" id="elmp6m4yys9t8" class="animable"></polygon><polygon points="586.64 318.27 593.15 318.27 598.76 388.95 587.77 388.95 586.64 318.27" style="fill: rgb(224, 224, 224); transform-origin: 592.7px 353.61px;" id="el9hy6vhbjuv8" class="animable"></polygon><rect x="541.71" y="346.1" width="33.94" height="5.69" style="fill: rgb(255, 255, 255); transform-origin: 558.68px 348.945px;" id="ele22efl1hpeh" class="animable"></rect><path d="M560,334.46a31.4,31.4,0,0,0-1.54-6.44,18.19,18.19,0,0,0-3.54-5.92,9,9,0,0,0-13.83-.05,17.82,17.82,0,0,0-3.56,5.9,31.47,31.47,0,0,0-1.56,6.43,1.4,1.4,0,0,1,0-.47,12.92,12.92,0,0,1,.12-1.34,22.46,22.46,0,0,1,1.14-4.77,18.07,18.07,0,0,1,3.57-6.1,9.31,9.31,0,0,1,14.41.05,18.17,18.17,0,0,1,3.55,6.12,22.53,22.53,0,0,1,1.13,4.78A12.35,12.35,0,0,1,560,334,1.4,1.4,0,0,1,560,334.46Z" style="fill: rgb(38, 50, 56); transform-origin: 547.985px 326.385px;" id="elucymen04occ" class="animable"></path><path d="M564.16,334.46a31.4,31.4,0,0,0-1.54-6.44,18,18,0,0,0-3.54-5.92,9,9,0,0,0-13.83-.05,17.82,17.82,0,0,0-3.56,5.9,31.47,31.47,0,0,0-1.56,6.43,1.4,1.4,0,0,1,0-.47,12.92,12.92,0,0,1,.12-1.34,22.46,22.46,0,0,1,1.14-4.77,18.07,18.07,0,0,1,3.57-6.1,9.31,9.31,0,0,1,14.41.05,18,18,0,0,1,3.55,6.12,22.53,22.53,0,0,1,1.13,4.78c.07.58.11,1,.12,1.34A1.53,1.53,0,0,1,564.16,334.46Z" style="fill: rgb(38, 50, 56); transform-origin: 552.147px 326.385px;" id="elwk3fr0pp12d" class="animable"></path><polygon points="522.02 331.67 568.9 331.34 569.92 389.5 517.32 389.5 522.02 331.67" style="fill: rgb(38, 50, 56); transform-origin: 543.62px 360.42px;" id="elhxzuj6krzjl" class="animable"></polygon><polygon points="568.9 331.34 574.78 331.34 579.85 389.5 569.92 389.5 568.9 331.34" style="fill: rgb(38, 50, 56); transform-origin: 574.375px 360.42px;" id="el4aajft49e5c" class="animable"></polygon><g id="el0zme5ekk42mr"><g style="opacity: 0.3; transform-origin: 574.375px 360.42px;" class="animable"><polygon points="568.9 331.34 574.78 331.34 579.85 389.5 569.92 389.5 568.9 331.34" id="eliru5euz8pn8" class="animable" style="transform-origin: 574.375px 360.42px;"></polygon></g></g><rect x="530.22" y="351.09" width="30.69" height="5.88" style="fill: rgb(255, 255, 255); transform-origin: 545.565px 354.03px;" id="el2bfa09kltj5" class="animable"></rect></g><g id="freepik--Gift--inject-38" class="animable animator-hidden" style="transform-origin: 198.73px 353.325px;"><path d="M201.74,316.72s-12.8.74-13.83,3c0,0-.17,9.42,8.89,18.91L195,342.46v6.28c4.21-8.16,8.91-20.66,8.91-20.66S204.12,319.3,201.74,316.72Z" style="fill: rgb(69, 90, 100); transform-origin: 195.912px 332.73px;" id="el0s3k3j4z4arc" class="animable"></path><g id="eldpv7zo3wb7"><g style="opacity: 0.3; transform-origin: 200.768px 327.525px;" class="animable"><path d="M201.28,317.55s-4.47,11.6-1.73,19.95C199.55,337.5,205.69,327.25,201.28,317.55Z" id="el4kwv40ezdy3" class="animable" style="transform-origin: 200.768px 327.525px;"></path></g></g><path d="M221.41,332.34S215.47,321,213,321c0,0-8.65,3.73-13.58,15.88l-4.25,0s-2.26-9.76-13.63-15.12c0,0-6.49,11.69-6.71,11.57a23.12,23.12,0,0,0,14.61,6.13c9.17.48,22.5-.38,22.5-.38S220,335.57,221.41,332.34Z" style="fill: rgb(69, 90, 100); transform-origin: 198.12px 330.303px;" id="elak9xv98thc" class="animable"></path><g id="elzho5xdfk4c8"><g style="opacity: 0.3; transform-origin: 184.33px 336.115px;" class="animable"><path d="M193,338.37s-9.59-5.53-17.34-5C175.62,333.35,184.6,340.92,193,338.37Z" id="eli7wtlvlmehr" class="animable" style="transform-origin: 184.33px 336.115px;"></path></g></g><g id="ely5fymgwino"><g style="opacity: 0.3; transform-origin: 211.01px 335.62px;" class="animable"><path d="M220.46,332.26s-12.41.7-18.9,6.63C201.56,338.89,213.43,340.27,220.46,332.26Z" id="elm9lypz3m9c" class="animable" style="transform-origin: 211.01px 335.62px;"></path></g></g><polygon points="240.07 338.96 236.68 389.93 158.01 389.19 157.39 338.19 240.07 338.96" style="fill: rgb(38, 50, 56); transform-origin: 198.73px 364.06px;" id="ellw88yx8413d" class="animable"></polygon><g id="el5rn3cm9um6x"><g style="opacity: 0.3; transform-origin: 232.365px 364.375px;" class="animable"><polygon points="225.14 338.82 224.66 389.82 236.68 389.93 240.07 338.96 225.14 338.82" id="eleus7oguvpgc" class="animable" style="transform-origin: 232.365px 364.375px;"></polygon></g></g><polygon points="234.16 338.91 231.68 389.88 228.94 389.86 229.42 338.87 234.16 338.91" style="fill: rgb(69, 90, 100); transform-origin: 231.55px 364.375px;" id="elzy2sxtzj41r" class="animable"></polygon><g id="el93dnwob02of"><rect x="166.17" y="360.73" width="50.99" height="6.56" style="fill: rgb(69, 90, 100); transform-origin: 191.665px 364.01px; transform: rotate(-89.46deg);" class="animable"></rect></g><rect x="157.66" y="360.65" width="80.64" height="4.95" style="fill: rgb(69, 90, 100); transform-origin: 197.98px 363.125px;" id="el6l6dloyxlaw" class="animable"></rect></g><g id="freepik--Character--inject-38" class="animable" style="transform-origin: 355.526px 312.287px;"><path d="M318.78,177.06a71.72,71.72,0,0,1-.68-12.33A25,25,0,0,1,321.47,153c.33-.53,2.93-4,3.53-3.83.43.13-1.42,3.5-1.28,3.92a21.12,21.12,0,0,1-.11,12.59,55.93,55.93,0,0,1-4.83,11.42" style="fill: rgb(38, 50, 56); transform-origin: 321.565px 163.132px;" id="elvm2n2d37kl7" class="animable"></path><path d="M314.48,197.76l7-36.2c1.72-10.2,9.08-17.69,19.23-15.69l.93.24a18.48,18.48,0,0,1,13.58,21.07c-1.54,8.83-3.35,18.56-4.61,23.19C348,199.94,338,199,338,199s-2.43,10.85-3,13.7l-14.16-4.94-3.42-1.08Z" style="fill: rgb(255, 191, 157); transform-origin: 334.988px 179.123px;" id="el12mc0d2looqh" class="animable"></path><path d="M338,199A24,24,0,0,1,326.48,192s1.15,8,11,9.61Z" style="fill: rgb(255, 154, 108); transform-origin: 332.24px 196.805px;" id="elgl0gduonbti" class="animable"></path><path d="M350.58,176.09a1.41,1.41,0,0,1-1.68,1,1.35,1.35,0,0,1-1.1-1.6,1.42,1.42,0,0,1,1.68-1A1.35,1.35,0,0,1,350.58,176.09Z" style="fill: rgb(38, 50, 56); transform-origin: 349.19px 175.791px;" id="elkohstose4" class="animable"></path><path d="M352.1,170.89c-.21.13-1.05-.9-2.53-1.28s-2.75.08-2.86-.14.2-.38.76-.6a3.91,3.91,0,0,1,2.35-.11,3.78,3.78,0,0,1,2,1.24C352.14,170.47,352.21,170.83,352.1,170.89Z" style="fill: rgb(38, 50, 56); transform-origin: 349.418px 169.766px;" id="el0zlet113brs" class="animable"></path><path d="M337.37,173.13a1.42,1.42,0,0,1-1.69,1,1.35,1.35,0,0,1-1.09-1.6,1.41,1.41,0,0,1,1.68-1A1.35,1.35,0,0,1,337.37,173.13Z" style="fill: rgb(38, 50, 56); transform-origin: 335.98px 172.83px;" id="el5hthaph37ee" class="animable"></path><path d="M337.81,167.82c-.22.13-1.06-.91-2.54-1.28s-2.75.08-2.86-.15.2-.37.76-.6a3.85,3.85,0,0,1,2.35-.1,3.74,3.74,0,0,1,2,1.24C337.84,167.39,337.91,167.76,337.81,167.82Z" style="fill: rgb(38, 50, 56); transform-origin: 335.12px 166.692px;" id="elmog24fzrxhq" class="animable"></path><path d="M339.91,180.2a10.87,10.87,0,0,1,2.51.19c.38.06.76.08.89-.16a2,2,0,0,0,0-1.19c-.12-1-.24-2-.37-3.16-.5-4.48-.75-8.13-.57-8.15s.73,3.6,1.22,8.09c.11,1.1.22,2.16.32,3.16a2.25,2.25,0,0,1-.19,1.53.94.94,0,0,1-.76.39,2.19,2.19,0,0,1-.66-.07A9.57,9.57,0,0,1,339.91,180.2Z" style="fill: rgb(38, 50, 56); transform-origin: 341.939px 174.316px;" id="eltimb4ocdaef" class="animable"></path><path d="M340,162.22c-.3.32-1.63-.44-3.36-.93s-3.26-.6-3.33-1c0-.21.35-.47,1-.62a5.92,5.92,0,0,1,2.72.16,5.8,5.8,0,0,1,2.38,1.34C339.94,161.63,340.12,162.06,340,162.22Z" style="fill: rgb(38, 50, 56); transform-origin: 336.673px 160.939px;" id="elip4d408s3rp" class="animable"></path><path d="M353.56,165.32c-.39.26-1.51-.38-3-.75s-2.73-.42-2.93-.84c-.08-.2.2-.49.81-.68a4.85,4.85,0,0,1,2.54,0,4.8,4.8,0,0,1,2.2,1.25C353.65,164.8,353.74,165.19,353.56,165.32Z" style="fill: rgb(38, 50, 56); transform-origin: 350.631px 164.131px;" id="elpp44n6zzfca" class="animable"></path><path d="M320.44,168.88c-.14-.12-6.09-3.66-7.58,3s5.47,6.75,5.52,6.56S320.44,168.88,320.44,168.88Z" style="fill: rgb(255, 191, 157); transform-origin: 316.545px 173.16px;" id="elwkz75428j9g" class="animable"></path><path d="M316.92,175.44s-.13.05-.35.1a1.17,1.17,0,0,1-.86-.18,2.9,2.9,0,0,1-.75-2.85,3.87,3.87,0,0,1,.7-1.58,1.35,1.35,0,0,1,1.06-.69.59.59,0,0,1,.61.47c.05.2,0,.32,0,.34s.17-.08.17-.36a.72.72,0,0,0-.16-.47.89.89,0,0,0-.6-.32,1.66,1.66,0,0,0-1.44.76,3.94,3.94,0,0,0-.81,1.75,3.05,3.05,0,0,0,1,3.24,1.21,1.21,0,0,0,1.09.06C316.87,175.6,316.94,175.46,316.92,175.44Z" style="fill: rgb(255, 154, 108); transform-origin: 315.931px 172.856px;" id="elhfd82o41er" class="animable"></path><path d="M353.32,155.26c1.2-.36-1.27-4.53-3.65-6.3-3.6-2.67-9.45-5.09-13.35-4.84-4.7.3-8.85,1.71-11.94,5.26a26.66,26.66,0,0,0-5.8,12.69,8,8,0,0,0,.06,4.25c.61,1.67,2.19,3,1.67,5a2.81,2.81,0,0,0,.26,2.18c.93,1.55,2.68.66,3.62-.41,2-2.29,2.85-5.35,3.62-8.3a19.75,19.75,0,0,0,.94-6.4c-.08-1.18-.38-2.34-.4-3.51a4.12,4.12,0,0,1,1.18-3.22,4.53,4.53,0,0,1,.66-.42,7.07,7.07,0,0,1,7.15.17c3.45,2.13,9.4,5.47,11.34,4.57a10.44,10.44,0,0,0,3.62-2.38Z" style="fill: rgb(38, 50, 56); transform-origin: 335.978px 159.218px;" id="elzhhotjafgt" class="animable"></path><path d="M335,180.12c.23,0-.09,1.56,1,2.92s2.74,1.53,2.71,1.74-.43.22-1.12.1a3.87,3.87,0,0,1-2.27-1.37,3.38,3.38,0,0,1-.74-2.43C334.68,180.43,334.93,180.09,335,180.12Z" style="fill: rgb(38, 50, 56); transform-origin: 336.638px 182.538px;" id="el0d83u307me9s" class="animable"></path><path d="M351.62,260.88l25.06,10.22-3.08,11.75-25.75-5.29a15.38,15.38,0,0,1-12.43-9.43l-8.87-21.53,14.2-13.5Z" style="fill: rgb(255, 191, 157); transform-origin: 351.615px 257.975px;" id="elbvy12mcpsx8" class="animable"></path><path d="M376.18,285.52c2.58,1,5.43,2.15,5.43,2.15l2.58.92a3.5,3.5,0,0,1-.38.39,2.08,2.08,0,0,0-.65.8,1.64,1.64,0,0,0,.77,1.69,3.88,3.88,0,0,0,6.21-2.55,3.18,3.18,0,0,0,.71-.88c1.22-2.26-.54-5.56-.54-5.56l.95.19s2.47,1.7,1.73,6.63a3.13,3.13,0,0,0,.44,2.13,1.57,1.57,0,0,0,1.09.76c1.2.15,1.61-.66,2.11-3.73s0-6.21-1.49-7.71a20.82,20.82,0,0,0-2.12-2s8.65,1.26,9.2,1.32c1.6.17,3-.4,3.21-1.45.13-.68-.2-1.63-2.05-1.88-1.6-.22-17.72-4.54-17.72-4.54l-7.24-1.5-6.18-.26L370,279.8l1.77,1.91A8.52,8.52,0,0,0,376.18,285.52Z" style="fill: rgb(255, 191, 157); transform-origin: 387.728px 281.357px;" id="elpuacejeudgr" class="animable"></path><path d="M378.83,272.21a2.28,2.28,0,0,0,.92,2.49c.74.6,1.66.94,2.44,1.48,2.33,1.63,3.12,4.91,5.53,6.43.34.21.82.37,1.09.09s.14-.7,0-1q-1.74-4.38-3.46-8.77" style="fill: rgb(255, 191, 157); transform-origin: 383.858px 277.53px;" id="elzs9yj78v0l8" class="animable"></path><path d="M385.36,272.89a4.07,4.07,0,0,1,.47.91c.27.6.64,1.47,1.1,2.56l1.56,3.81.45,1.11a1.91,1.91,0,0,1,.21,1.39.8.8,0,0,1-.77.45,1.75,1.75,0,0,1-.74-.24,7.05,7.05,0,0,1-1.09-.87,35.84,35.84,0,0,1-3-4.11,7.19,7.19,0,0,0-1.49-1.52c-.54-.39-1.12-.67-1.63-1a3.34,3.34,0,0,1-1.79-2.17c-.12-.7.16-1,.17-1a2.72,2.72,0,0,0,0,1,3.27,3.27,0,0,0,1.77,1.89c.51.28,1.1.54,1.7.94A7.42,7.42,0,0,1,384,277.6a43.26,43.26,0,0,0,3,4,5.57,5.57,0,0,0,1,.79c.34.2.7.23.76,0s-.06-.61-.21-1l-.43-1.11c-.53-1.42-1-2.71-1.46-3.86s-.73-2-.94-2.61A3.46,3.46,0,0,1,385.36,272.89Z" style="fill: rgb(255, 154, 108); transform-origin: 383.905px 277.666px;" id="el965ee9m1lig" class="animable"></path><path d="M390.28,282.35a4.1,4.1,0,0,1,1.59.8,3.06,3.06,0,0,1,.9,1.66,7.84,7.84,0,0,1,0,2.38,12.28,12.28,0,0,0-.1,2.47,4,4,0,0,0,.67,1.95,1.54,1.54,0,0,0,1.22.66.83.83,0,0,0,.5-.1,3.65,3.65,0,0,0-.49,0,1.5,1.5,0,0,1-1-.67,4,4,0,0,1-.55-1.83,13.65,13.65,0,0,1,.13-2.41,7.62,7.62,0,0,0-.07-2.49A3.13,3.13,0,0,0,392,283a2.8,2.8,0,0,0-1.25-.6A1,1,0,0,0,390.28,282.35Z" style="fill: rgb(255, 154, 108); transform-origin: 392.67px 287.308px;" id="el413cex5w9bo" class="animable"></path><path d="M402.84,280.13a9.4,9.4,0,0,0-1.72-.27l-4.15-.52-4.14-.59a9.08,9.08,0,0,0-1.73-.2,8.4,8.4,0,0,0,1.68.44c1.06.22,2.52.47,4.15.69s3.1.36,4.17.43A8.16,8.16,0,0,0,402.84,280.13Z" style="fill: rgb(255, 154, 108); transform-origin: 396.97px 279.359px;" id="el1pzo9zwxoyw" class="animable"></path><path d="M388.07,284a2.73,2.73,0,0,0,.13.53,1.62,1.62,0,0,1-.11,1.34.83.83,0,0,1-.77.34,4.49,4.49,0,0,1-1.11-.23,1.93,1.93,0,0,0-1.38,0,1.62,1.62,0,0,0-.86,1.22,1.9,1.9,0,0,0,.41,1.44,2.43,2.43,0,0,0,1.12.8,7.44,7.44,0,0,0,2.22.27,4.51,4.51,0,0,0,1.49-.24,1,1,0,0,0,.46-.29s-.18.07-.51.16a5.06,5.06,0,0,1-1.44.13,8.32,8.32,0,0,1-2.12-.33,1.88,1.88,0,0,1-1.29-1.88,1.32,1.32,0,0,1,.67-1,1.68,1.68,0,0,1,1.15,0,4.44,4.44,0,0,0,1.19.21,1.11,1.11,0,0,0,1-.5,1.66,1.66,0,0,0,0-1.51C388.2,284.2,388.09,284,388.07,284Z" style="fill: rgb(255, 154, 108); transform-origin: 386.812px 286.857px;" id="elp8yk6heg6t" class="animable"></path><path d="M384.66,288.59s-.17-.09-.49,0a1.5,1.5,0,0,0-1,.88,2,2,0,0,0,.34,2,3.28,3.28,0,0,0,2.17,1.16,4,4,0,0,0,2.4-.42,3.7,3.7,0,0,0,1.44-1.38,3.4,3.4,0,0,0,.48-1.24c0-.32,0-.49,0-.49a6.13,6.13,0,0,1-.69,1.6,3.7,3.7,0,0,1-1.38,1.22,3.8,3.8,0,0,1-2.22.37,3,3,0,0,1-2-1,1.77,1.77,0,0,1-.36-1.69,1.42,1.42,0,0,1,.83-.84C384.48,288.6,384.66,288.62,384.66,288.59Z" style="fill: rgb(255, 154, 108); transform-origin: 386.52px 290.609px;" id="elfrtqkia8dol" class="animable"></path><path d="M379.64,281.83s.14-.29.1-.82a3.29,3.29,0,0,0-.86-2l-.12.28a7.88,7.88,0,0,0,1.18,0,7.42,7.42,0,0,0,3.84-1.28,19.38,19.38,0,0,1-3.87.94c-.4,0-.79,0-1.14,0h-.4l.27.28a3.47,3.47,0,0,1,.89,1.75C379.63,281.52,379.6,281.83,379.64,281.83Z" style="fill: rgb(255, 154, 108); transform-origin: 381.075px 279.92px;" id="elcv7nt6q17rb" class="animable"></path><path d="M394.36,284c0-.09-.69.16-1.11.88s-.34,1.41-.25,1.4.16-.61.54-1.22S394.41,284.12,394.36,284Z" style="fill: rgb(255, 154, 108); transform-origin: 393.646px 285.131px;" id="el5ps2spigpee" class="animable"></path><path d="M337.5,214.71s-1.35-8.46-1.23-7.88c.61,2.89,4.85,7.17,5.88,16.57.4,3.67,6.93,27.58,6.93,27.58L331,259.38l-1.14-20.27Z" style="fill: rgb(38, 50, 56); transform-origin: 339.47px 233.091px;" id="eleo78b2si18" class="animable"></path><path d="M465.48,342a31.2,31.2,0,0,0-2-6.15,17.74,17.74,0,0,0-3.87-5.49,8.76,8.76,0,0,0-13.44,1,17.38,17.38,0,0,0-3,6,30.29,30.29,0,0,0-1.05,6.37,1.59,1.59,0,0,1,0-.46c0-.3,0-.74,0-1.31a21.85,21.85,0,0,1,.77-4.72,17.52,17.52,0,0,1,3-6.19,9.07,9.07,0,0,1,14-1,17.85,17.85,0,0,1,3.89,5.69,22,22,0,0,1,1.45,4.56c.11.56.17,1,.2,1.29A2.27,2.27,0,0,1,465.48,342Z" style="fill: rgb(38, 50, 56); transform-origin: 453.792px 335.471px;" id="elthz7mxkexp" class="animable"></path><path d="M469.51,341.66a31.2,31.2,0,0,0-2-6.15,17.58,17.58,0,0,0-3.87-5.49,8.75,8.75,0,0,0-13.44,1,17.47,17.47,0,0,0-3,6,31,31,0,0,0-1.05,6.36,1.29,1.29,0,0,1,0-.45,11.66,11.66,0,0,1,0-1.31,22.5,22.5,0,0,1,.77-4.72,17.52,17.52,0,0,1,3-6.19,9.07,9.07,0,0,1,14-1,17.69,17.69,0,0,1,3.89,5.69,22,22,0,0,1,1.45,4.56q.17.84.21,1.29A2.64,2.64,0,0,1,469.51,341.66Z" style="fill: rgb(38, 50, 56); transform-origin: 457.82px 335.126px;" id="elowoppvlgj4n" class="animable"></path><polygon points="428.36 342.01 473.88 338.28 479.11 394.71 428.01 398.55 428.36 342.01" style="fill: rgb(38, 50, 56); transform-origin: 453.56px 368.415px;" id="el05juzowdbmvx" class="animable"></polygon><polygon points="473.88 338.28 479.6 337.85 488.75 393.99 479.11 394.71 473.88 338.28" style="fill: rgb(38, 50, 56); transform-origin: 481.315px 366.28px;" id="el4586gqvx93b" class="animable"></polygon><g id="eljy8ol5a1yvl"><g style="opacity: 0.3; transform-origin: 481.315px 366.28px;" class="animable"><polygon points="473.88 338.28 479.6 337.85 488.75 393.99 479.11 394.71 473.88 338.28" id="el4qqtirgthaj" class="animable" style="transform-origin: 481.315px 366.28px;"></polygon></g></g><g id="elerg6dz6bl77"><rect x="437.91" y="359.17" width="29.9" height="5.73" style="fill: rgb(255, 255, 255); transform-origin: 452.86px 362.035px; transform: rotate(-4.29deg);" class="animable"></rect></g><path d="M407.35,308.65a27.15,27.15,0,0,0-1.28-5.38,15.32,15.32,0,0,0-3-4.94,7.5,7.5,0,0,0-11.54,0,14.84,14.84,0,0,0-3,4.92,27.07,27.07,0,0,0-1.31,5.37,1.91,1.91,0,0,1,0-.39c0-.25,0-.63.1-1.11a18.73,18.73,0,0,1,1-4,15,15,0,0,1,3-5.09,7.76,7.76,0,0,1,12,0,15.21,15.21,0,0,1,3,5.11,18.87,18.87,0,0,1,.95,4,9.76,9.76,0,0,1,.09,1.12A2,2,0,0,1,407.35,308.65Z" style="fill: rgb(38, 50, 56); transform-origin: 397.288px 301.921px;" id="elgu5z3klawsv" class="animable"></path><path d="M410.82,308.65a26.83,26.83,0,0,0-1.29-5.38,15.28,15.28,0,0,0-2.95-4.94,7.51,7.51,0,0,0-11.55,0,15.18,15.18,0,0,0-3,4.92,25.69,25.69,0,0,0-1.3,5.37s0-.13,0-.39a8.23,8.23,0,0,1,.1-1.11,18,18,0,0,1,.95-4,15.12,15.12,0,0,1,3-5.09,7.77,7.77,0,0,1,12,0,15.21,15.21,0,0,1,3,5.11,18.74,18.74,0,0,1,.94,4c.06.48.09.86.1,1.12A2,2,0,0,1,410.82,308.65Z" style="fill: rgb(38, 50, 56); transform-origin: 400.78px 301.923px;" id="el8dzugq1tnpa" class="animable"></path><polygon points="375.65 306.32 414.76 306.05 415.62 354.58 371.72 354.58 375.65 306.32" style="fill: rgb(69, 90, 100); transform-origin: 393.67px 330.315px;" id="el03bnpv6caswh" class="animable"></polygon><polygon points="414.76 306.05 419.68 306.05 423.9 354.58 415.62 354.58 414.76 306.05" style="fill: rgb(69, 90, 100); transform-origin: 419.33px 330.315px;" id="elewp4db7fqrf" class="animable"></polygon><g id="el292tt6lzmql"><g style="opacity: 0.3; transform-origin: 419.33px 330.315px;" class="animable"><polygon points="414.76 306.05 419.68 306.05 423.9 354.58 415.62 354.58 414.76 306.05" id="el1azxseakt7k" class="animable" style="transform-origin: 419.33px 330.315px;"></polygon></g></g><rect x="382.49" y="322.53" width="25.61" height="4.9" style="fill: rgb(255, 255, 255); transform-origin: 395.295px 324.98px;" id="elgb6e6e3uat5" class="animable"></rect><path d="M402.14,332.67s-11.54,1.53-12.32,3.63c0,0,.49,8.54,9.33,16.51l-1.36,3.62.42,5.69c3.26-7.68,6.66-19.31,6.66-19.31S404.47,334.84,402.14,332.67Z" style="fill: rgb(224, 224, 224); transform-origin: 397.345px 347.395px;" id="elwmpfezgvmi" class="animable"></path><g id="elatdn4u3rw1o"><g style="opacity: 0.3; transform-origin: 402.03px 342.54px;" class="animable"><path d="M401.78,333.45s-3.26,10.81-.21,18.18C401.57,351.63,406.43,341.94,401.78,333.45Z" id="el03qi6tze7jbp" class="animable" style="transform-origin: 402.03px 342.54px;"></path></g></g><path d="M421,345.47s-6.15-9.88-8.38-9.73c0,0-7.58,4-11.21,15.29l-3.86.26s-2.7-8.68-13.36-12.77c0,0-5.08,11-5.29,10.93A20.93,20.93,0,0,0,392.54,354c8.34-.19,20.34-1.87,20.34-1.87S420,348.49,421,345.47Z" style="fill: rgb(224, 224, 224); transform-origin: 399.95px 344.873px;" id="elh4cms2jsb6" class="animable"></path><g id="ell3k598jzyz9"><g style="opacity: 0.3; transform-origin: 387.66px 351.489px;" class="animable"><path d="M395.66,352.87s-9.06-4.36-16-3.37C379.62,349.5,388.27,355.74,395.66,352.87Z" id="ell3p4kf058hb" class="animable" style="transform-origin: 387.66px 351.489px;"></path></g></g><g id="el6628tugp0ja"><g style="opacity: 0.3; transform-origin: 411.81px 349.117px;" class="animable"><path d="M420.14,345.47S409,347,403.48,352.76C403.48,352.76,414.32,353.2,420.14,345.47Z" id="elv04ojzpmx89" class="animable" style="transform-origin: 411.81px 349.117px;"></path></g></g><polygon points="438.35 350.21 438.74 396.57 367.46 401.25 363.45 355.12 438.35 350.21" style="fill: rgb(38, 50, 56); transform-origin: 401.095px 375.73px;" id="el4n2byygxtzo" class="animable"></polygon><g id="elolhn7lx2tp"><g style="opacity: 0.3; transform-origin: 431.78px 373.75px;" class="animable"><polygon points="424.82 351.09 427.85 397.29 438.74 396.57 438.35 350.21 424.82 351.09" id="elybz4c02fk5" class="animable" style="transform-origin: 431.78px 373.75px;"></polygon></g></g><polygon points="432.99 350.56 434.2 396.87 431.73 397.03 428.7 350.84 432.99 350.56" style="fill: rgb(245, 245, 245); transform-origin: 431.45px 373.795px;" id="elf0squk4xdk9" class="animable"></polygon><g id="elfnz5da7m2ta"><rect x="393.25" y="353.02" width="5.95" height="46.29" style="fill: rgb(245, 245, 245); transform-origin: 396.225px 376.165px; transform: rotate(-3.75deg);" class="animable"></rect></g><g id="elyeyels6egik"><rect x="365.28" y="372.69" width="73.2" height="4.49" style="fill: rgb(245, 245, 245); transform-origin: 401.88px 374.935px; transform: rotate(-4.29deg);" class="animable"></rect></g><path d="M373.49,400.82a.49.49,0,0,1-.49-.41l-18.34-91.94a.5.5,0,0,1,.39-.59.51.51,0,0,1,.59.4L374,400.22a.51.51,0,0,1-.39.59Z" style="fill: rgb(224, 224, 224); transform-origin: 364.329px 354.346px;" id="elg01nt0fg44m" class="animable"></path><path d="M389.31,399.94a.49.49,0,0,1-.49-.4l-16-85.69a.5.5,0,0,1,1-.19l16,85.69a.51.51,0,0,1-.4.59Z" style="fill: rgb(224, 224, 224); transform-origin: 381.32px 356.593px;" id="eldw4ftpu6wnn" class="animable"></path><path d="M404,399.09a.49.49,0,0,1-.49-.42l-12.46-84.42a.5.5,0,0,1,.42-.57.51.51,0,0,1,.57.42l12.46,84.42a.51.51,0,0,1-.42.57Z" style="fill: rgb(224, 224, 224); transform-origin: 397.774px 356.383px;" id="elsn4h6y7ljy" class="animable"></path><path d="M420.69,399.44a.5.5,0,0,1-.49-.43l-12.13-82.16a.5.5,0,1,1,1-.14l12.13,82.15a.5.5,0,0,1-.42.57Z" style="fill: rgb(224, 224, 224); transform-origin: 414.635px 357.856px;" id="el83t297wz7w" class="animable"></path><path d="M436.83,396.35a.49.49,0,0,1-.49-.42l-11.16-75.62a.5.5,0,0,1,.42-.57.51.51,0,0,1,.57.42l11.16,75.62a.51.51,0,0,1-.42.57Z" style="fill: rgb(224, 224, 224); transform-origin: 431.254px 358.043px;" id="eludabx23s9m" class="animable"></path><path d="M453.67,398a.5.5,0,0,1-.49-.43L442,322.06a.5.5,0,0,1,1-.15l11.14,75.48a.5.5,0,0,1-.43.57Z" style="fill: rgb(224, 224, 224); transform-origin: 448.07px 359.74px;" id="elkop5n898ne9" class="animable"></path><path d="M468.54,396.35a.49.49,0,0,1-.49-.45l-7.18-71a.49.49,0,0,1,.45-.54.51.51,0,0,1,.55.44l7.17,71a.5.5,0,0,1-.45.55Z" style="fill: rgb(224, 224, 224); transform-origin: 464.955px 360.354px;" id="elaviwwt5nl4s" class="animable"></path><path d="M481,396.35a.5.5,0,0,1-.5-.48l-2.4-68.34a.5.5,0,0,1,.48-.52.52.52,0,0,1,.52.49l2.4,68.34a.5.5,0,0,1-.48.51Z" style="fill: rgb(224, 224, 224); transform-origin: 479.8px 361.68px;" id="elanxoiy97ji" class="animable"></path><path d="M355.81,385.07l13.75-.68,33-1.65,39.79-2,34.4-1.71,11.39-.57c1.79-.09,3.62-.08,5.4-.27h.24c.8,0,.81-1.29,0-1.25l-13.75.68-33,1.64-39.79,2L372.84,383l-11.38.57c-1.8.09-3.63.07-5.41.27h-.24c-.8,0-.8,1.29,0,1.25Z" style="fill: rgb(224, 224, 224); transform-origin: 424.797px 381.015px;" id="elfulv5yb7875" class="animable"></path><path d="M351.6,360.81l14.26.3,34.13.72,41.27.86,35.77.75,11.77.24c1.83,0,3.7.19,5.53.12h.25a.63.63,0,0,0,0-1.25l-14.27-.29-34.13-.72-41.26-.86-35.78-.75-11.76-.25c-1.83,0-3.7-.18-5.53-.11h-.25a.63.63,0,0,0,0,1.25Z" style="fill: rgb(224, 224, 224); transform-origin: 423.09px 361.685px;" id="elzhps89isk0r" class="animable"></path><path d="M345.44,333.29l15,1.42,35.84,3.39,43.33,4.1,37.55,3.56,12.3,1.16c1.93.19,3.91.52,5.85.56l.26,0c.8.08.8-1.17,0-1.25l-15-1.42-35.84-3.39-43.33-4.1-37.55-3.56-12.3-1.16c-1.93-.18-3.91-.52-5.85-.55l-.26,0c-.8-.07-.8,1.18,0,1.25Z" style="fill: rgb(224, 224, 224); transform-origin: 420.505px 339.765px;" id="eliliy9t6tpro" class="animable"></path><path d="M364.28,404.29a7.78,7.78,0,0,1-7.63-6.18L337,306.52a2,2,0,0,1,2.22-2.36L497,328.35a2,2,0,0,1,1.67,2.07L495,390.28a7.82,7.82,0,0,1-7.38,7.32l-122.87,6.67Zm-22.81-95.8,19,88.79a3.84,3.84,0,0,0,4,3.06l122.87-6.68A3.86,3.86,0,0,0,491,390L494.64,332Z" style="fill: rgb(224, 224, 224); transform-origin: 417.818px 354.217px;" id="elyidk4lde52e" class="animable"></path><path d="M364.28,404.29a7.78,7.78,0,0,1-7.63-6.18L337,306.52a2,2,0,0,1,2.22-2.36L497,328.35a2,2,0,0,1,1.67,2.07L495,390.28a7.82,7.82,0,0,1-7.38,7.32l-122.87,6.67Zm-22.81-95.8,19,88.79a3.84,3.84,0,0,0,4,3.06l122.87-6.68A3.86,3.86,0,0,0,491,390L494.64,332Z" style="fill: none; transform-origin: 417.818px 354.217px;" id="el5unb6fnzxuq" class="animable"></path><path d="M341.47,308.49l.73.09,2.18.33,8.47,1.27,31.8,4.81,110,16.73.22,0V332c-.62,10-1.26,20.35-1.92,31.05q-.5,8-1,16.27-.25,4.11-.51,8.28l-.13,2.08a4.6,4.6,0,0,1-.54,2.12,4.18,4.18,0,0,1-3.67,2.15L402,398.55l-37.16,2a4.12,4.12,0,0,1-3.92-1.83,4.54,4.54,0,0,1-.48-1c-.1-.36-.16-.71-.24-1.05-.15-.7-.3-1.39-.44-2.08-.59-2.75-1.17-5.46-1.73-8.11q-1.69-7.95-3.25-15.24c-8.16-38.63-13-61.32-13.26-62.72.31,1.4,5.24,24.1,13.63,62.74q1.56,7.26,3.28,15.18.84,4,1.74,8.07c.14.69.29,1.38.44,2.07a5,5,0,0,0,.67,1.93,3.67,3.67,0,0,0,3.54,1.63l37.16-2,85.15-4.65a3.68,3.68,0,0,0,3.25-1.88,4,4,0,0,0,.47-1.9l.13-2.08q.26-4.17.51-8.29.51-8.24,1-16.26c.67-10.7,1.32-21.09,1.94-31.06l.21.27-109.79-17L353,310.3,344.44,309l-2.21-.36Z" style="fill: rgb(38, 50, 56); transform-origin: 418.17px 354.534px;" id="ellrb51gli7a" class="animable"></path><path d="M364.28,404.29l18.26-1.09,49.8-2.78,34.39-1.9,19.16-1.06c.82,0,1.66-.07,2.45-.17a7.72,7.72,0,0,0,2.29-.76,7.54,7.54,0,0,0,3.36-3.45,7.46,7.46,0,0,0,.69-2.36c.09-.82.12-1.7.18-2.55.11-1.72.21-3.44.32-5.18.86-13.89,1.76-28.48,2.69-43.6l.36-5.69c0-1,.11-1.91.17-2.87a2.17,2.17,0,0,0-.14-1.28,1.74,1.74,0,0,0-.89-.84,9.68,9.68,0,0,0-1.36-.26l-1.43-.22-2.88-.44-5.77-.88-23.52-3.61-89.56-13.75-20.11-3.09L343.11,305l-2.36-.36-1.17-.18a2.37,2.37,0,0,0-1.09,0,1.75,1.75,0,0,0-1.28,1.49,3,3,0,0,0,.13,1.08l.24,1.14c2.59,12.11,5,23.39,7.19,33.69,4.38,20.59,7.92,37.25,10.37,48.78l1.62,7.66a7.71,7.71,0,0,0,6.33,5.91c.78.14,1.19.1,1.19.13H364a7.4,7.4,0,0,1-.9-.07,7.75,7.75,0,0,1-6.47-5.94q-.72-3.33-1.67-7.65c-2.49-11.52-6.08-28.17-10.53-48.75-2.22-10.29-4.64-21.57-7.25-33.67l-.24-1.14a3.41,3.41,0,0,1-.15-1.22,2.2,2.2,0,0,1,1.61-1.86,2.82,2.82,0,0,1,1.26,0l1.18.18,2.36.36,9.63,1.48,20.12,3.07,89.56,13.71L486,326.4l5.78.88,2.87.44,1.44.22a8.65,8.65,0,0,1,1.47.29,2.23,2.23,0,0,1,1.16,1.1,2.76,2.76,0,0,1,.2,1.53l-.18,2.87-.36,5.69c-.94,15.12-1.85,29.71-2.72,43.6-.11,1.74-.22,3.46-.33,5.18-.06.86-.08,1.7-.18,2.57a8.26,8.26,0,0,1-.73,2.51,8,8,0,0,1-3.57,3.66,7.86,7.86,0,0,1-2.44.8c-.86.12-1.67.13-2.5.18l-19.16,1-34.39,1.83-49.81,2.63-13.55.68-3.52.17C364.69,404.3,364.28,404.29,364.28,404.29Z" style="fill: rgb(38, 50, 56); transform-origin: 417.868px 354.154px;" id="elc56l0sf4fka" class="animable"></path><path d="M271.21,297.14s-2.29,9.15-2.06,15.09,3.2,15.55,3.2,15.55l-2.53,40.72h0s-14,13.31-18.53,19.16c-4.1,5.33-31.76,36.48-31.76,36.48l21,17.74s34.27-34.11,41.36-41.89S297,386.86,300,376.35s9.63-49,9.63-49l7.94-14.4-2-13.18Z" style="fill: rgb(38, 50, 56); transform-origin: 268.55px 369.51px;" id="el04twf4v8l24t" class="animable"></path><path d="M287.27,375.88c-.33,1.65-18.72,75.19-18.72,75.19l28.45,6.8c-.57-.87,6-27.35,11.46-48.43,5-19.41,7.82-25.66,9.11-33.56s7.35-54,7.11-56.92a20.49,20.49,0,0,1,1.26-7l-24.19-5.84Z" style="fill: rgb(38, 50, 56); transform-origin: 297.245px 381.995px;" id="eld0vms4iazxj" class="animable"></path><path d="M314.41,318.65a3.24,3.24,0,0,1-.25.39l-.79,1.14-3.1,4.38,0-.05c-.91,5.78-2.43,15-4.55,26.46-1.07,5.71-2.28,12-3.78,18.61q-.56,2.49-1.23,5c-.2.85-.46,1.69-.71,2.54s-.54,1.71-.86,2.56a9.9,9.9,0,0,1-1.31,2.41c-.52.75-1.06,1.49-1.64,2.21-1.13,1.45-2.33,2.85-3.55,4.27-6.78,7.75-13.6,14.8-19.8,21.2S261,421.89,256.19,426.65s-8.67,8.57-11.38,11.2l-3.12,3-.83.77c-.18.18-.28.26-.29.25a2.15,2.15,0,0,1,.26-.28c.19-.21.45-.47.78-.81l3.06-3.09,11.26-11.31c4.75-4.79,10.39-10.5,16.58-16.91s13-13.47,19.76-21.21c1.21-1.41,2.41-2.82,3.53-4.25a18.27,18.27,0,0,0,2.88-4.5,24.52,24.52,0,0,0,.85-2.5c.24-.85.51-1.69.71-2.53q.67-2.53,1.23-5c1.52-6.61,2.74-12.87,3.84-18.58,2.17-11.42,3.76-20.65,4.76-26.41v-.05l3.19-4.32.83-1.1A2,2,0,0,1,314.41,318.65Z" style="fill: rgb(69, 90, 100); transform-origin: 277.49px 380.26px;" id="elyqsgnel3t0e" class="animable"></path><path d="M247.16,431.94l-13.9,14.31s9.88,18.95,7.57,21.84l-28.73-26,20.75-23.2Z" style="fill: rgb(38, 50, 56); transform-origin: 229.63px 443.49px;" id="elnlmkbzxc2ca" class="animable"></path><path d="M225.5,437a1.58,1.58,0,0,0-2,.61,1.52,1.52,0,0,0,.58,2,1.68,1.68,0,0,0,2.14-.66,1.58,1.58,0,0,0-.84-2" style="fill: rgb(224, 224, 224); transform-origin: 224.827px 438.311px;" id="elo4dq4tiq4k" class="animable"></path><path d="M212.1,442.13l2.18-2.26L241,465.61s.78,1.71-.18,2.48Z" style="fill: rgb(69, 90, 100); transform-origin: 226.699px 453.98px;" id="elj93a0iv6jy" class="animable"></path><path d="M233.85,446.53c-.13.14-.89-.43-2-.61s-2,.09-2.07-.09.86-.79,2.19-.56S234,446.43,233.85,446.53Z" style="fill: rgb(255, 255, 255); transform-origin: 231.823px 445.885px;" id="elpfq3uyf7nt" class="animable"></path><path d="M235.74,450.5c-.09.16-.91-.15-1.93,0s-1.71.66-1.85.53.5-1,1.76-1.19S235.86,450.36,235.74,450.5Z" style="fill: rgb(255, 255, 255); transform-origin: 233.846px 450.429px;" id="elgcumlgyd3s" class="animable"></path><path d="M234.19,455.65c-.15-.08.29-1,1.34-1.4s2-.16,1.94,0-.82.22-1.68.59S234.34,455.76,234.19,455.65Z" style="fill: rgb(255, 255, 255); transform-origin: 235.817px 454.848px;" id="el0fpriwajv7cj" class="animable"></path><path d="M236.66,442.91c-.17.08-.64-.7-1.48-1.36s-1.69-1-1.66-1.16,1.09-.15,2.07.65S236.83,442.87,236.66,442.91Z" style="fill: rgb(255, 255, 255); transform-origin: 235.114px 441.612px;" id="el9nspmji4ewg" class="animable"></path><path d="M293.63,445.87l-3.31,15.49-.1,3s20,7.39,20.28,11.09l-38.72.08L271.7,464l4.17-20.45Z" style="fill: rgb(38, 50, 56); transform-origin: 291.1px 459.54px;" id="elwsk4lcqyfig" class="animable"></path><path d="M278.24,462.68a1.58,1.58,0,0,0-1.08,1.81,1.51,1.51,0,0,0,1.78,1.09,1.66,1.66,0,0,0,1.14-1.92,1.57,1.57,0,0,0-2-.93" style="fill: rgb(224, 224, 224); transform-origin: 278.622px 464.126px;" id="elsiwjxow4c2i" class="animable"></path><path d="M271.78,475.5l.1-3.14,37.09,1.1s1.73.74,1.53,2Z" style="fill: rgb(69, 90, 100); transform-origin: 291.148px 473.93px;" id="elz144s0r7bnd" class="animable"></path><path d="M290.85,464.14c0,.18-1,.27-1.88.88s-1.42,1.41-1.6,1.33.11-1.16,1.25-1.88S290.89,464,290.85,464.14Z" style="fill: rgb(255, 255, 255); transform-origin: 289.086px 465.169px;" id="elc6vczmlf2w8" class="animable"></path><path d="M294.91,465.81c0,.18-.77.5-1.41,1.3s-.83,1.65-1,1.64-.31-1.07.5-2.05S294.91,465.63,294.91,465.81Z" style="fill: rgb(255, 255, 255); transform-origin: 293.64px 467.243px;" id="elh2bvr237fmr" class="animable"></path><path d="M297.23,470.66c-.17,0-.44-.9,0-1.94s1.36-1.45,1.44-1.29-.46.71-.85,1.57S297.42,470.64,297.23,470.66Z" style="fill: rgb(255, 255, 255); transform-origin: 297.834px 469.028px;" id="elhjnxscpmpam" class="animable"></path><path d="M290.5,459.57c-.08.17-.95-.08-2,0s-1.9.41-2,.25.7-.84,2-.91S290.59,459.42,290.5,459.57Z" style="fill: rgb(255, 255, 255); transform-origin: 288.499px 459.384px;" id="elncn4pvmbsbf" class="animable"></path><path d="M342.27,459.91a1.86,1.86,0,0,1-1-.3,1.88,1.88,0,0,1-.58-2.6l28.41-44.54a21.39,21.39,0,0,1,28.55-7.13l72.59,40.91.14.08c4.37,3,6.76,6.22,7.11,9.59a1.89,1.89,0,1,1-3.75.39c-.23-2.2-2.05-4.5-5.42-6.82l-72.52-40.87a17.64,17.64,0,0,0-23.52,5.88L343.86,459A1.89,1.89,0,0,1,342.27,459.91Z" style="fill: rgb(224, 224, 224); transform-origin: 408.957px 431.244px;" id="el8otgmw9bxay" class="animable"></path><path d="M342.27,459.91a2.1,2.1,0,0,0,.79-.2,1.85,1.85,0,0,0,.75-.67c.22-.34.47-.75.75-1.2l5-8c4.41-6.94,10.79-17,18.71-29.49,1-1.56,2-3.16,3.05-4.79a20.84,20.84,0,0,1,3.69-4.7,17.83,17.83,0,0,1,18.21-3.66,19.34,19.34,0,0,1,3.12,1.48l3,1.71L412,417.48l56.46,31.78h0a20.66,20.66,0,0,1,3.31,2.79,7.9,7.9,0,0,1,2.17,3.9,2.26,2.26,0,0,0,.27,1,1.55,1.55,0,0,0,.7.64,1.6,1.6,0,0,0,1.79-.26,1.65,1.65,0,0,0,.49-.82,2.54,2.54,0,0,0,0-1,9.22,9.22,0,0,0-.63-2.1,17.25,17.25,0,0,0-6.17-6.72c-2.64-1.55-5.38-3-8-4.56l-15.78-8.89-29.81-16.82-13.88-7.84c-2.26-1.24-4.46-2.58-6.66-3.7A21.2,21.2,0,0,0,375.88,406a21,21,0,0,0-4.93,4.28,48.89,48.89,0,0,0-3.56,5.2l-21.08,32.9c-2.49,3.89-4.47,6.89-5.73,8.94a1.85,1.85,0,0,0,0,1.52,2,2,0,0,0,.77.82,2,2,0,0,0,.89.25H342a1.87,1.87,0,0,1-.68-.21,1.91,1.91,0,0,1-.81-.83,1.93,1.93,0,0,1-.06-1.59c1.25-2.1,3.2-5.1,5.65-9,5-7.8,12.11-19.06,20.95-33a49.82,49.82,0,0,1,3.58-5.25,21.55,21.55,0,0,1,5-4.37,21.59,21.59,0,0,1,20.72-1.22c2.26,1.15,4.42,2.45,6.69,3.7L417,416l29.83,16.79,15.78,8.89c2.68,1.52,5.36,3,8.08,4.58a17.81,17.81,0,0,1,6.35,6.95,10,10,0,0,1,.66,2.22,2.93,2.93,0,0,1,0,1.22,2,2,0,0,1-.64,1.08,2.15,2.15,0,0,1-3.29-.49,2.8,2.8,0,0,1-.33-1.15,7.37,7.37,0,0,0-2-3.64,20.27,20.27,0,0,0-3.23-2.71h0l-56.42-31.82-12.57-7.1-3-1.71a18.94,18.94,0,0,0-3.05-1.46,17.42,17.42,0,0,0-17.8,3.54,20.54,20.54,0,0,0-3.64,4.61c-1,1.64-2.06,3.23-3.06,4.79L349.76,450l-5.11,7.93c-.3.45-.55.85-.78,1.2a1.86,1.86,0,0,1-.78.66A1.54,1.54,0,0,1,342.27,459.91Z" style="fill: rgb(38, 50, 56); transform-origin: 409.036px 431.141px;" id="elgi0c9lvvqdj" class="animable"></path><circle cx="340.92" cy="469.74" r="8.87" style="fill: rgb(38, 50, 56); transform-origin: 340.92px 469.74px;" id="el98likoplmwf" class="animable"></circle><path d="M346.54,460.49a1.27,1.27,0,0,0,.37-.9v-.76a1.28,1.28,0,0,0-1.28-1.28h-8.22a1.28,1.28,0,0,0-1.28,1.28v.76a1.23,1.23,0,0,0,.55,1l-3.9.74v2.13L337,465l2.41,6a1.88,1.88,0,0,0,3.48,0l2.41-6.06,4.22-1v-2.75Z" style="fill: rgb(224, 224, 224); transform-origin: 341.15px 464.859px;" id="el9ri4ah8a6us" class="animable"></path><path d="M346.54,460.49s.3,0,.82.13,1.25.2,2.17.38l.09,0v.1c0,.79,0,1.71,0,2.75V464l-.13,0-4.2,1.06.14-.12c-.42,1.06-.86,2.2-1.33,3.41l-.74,1.85c-.13.33-.23.63-.39,1a2.12,2.12,0,0,1-3.88-.24c-.15-.35-.29-.7-.43-1.06q-.87-2.13-1.77-4.37l-.19-.46.15.14-4.21-1.51-.17-.06v-.18c0-.72,0-1.43,0-2.13v-.21l.2,0,3.9-.72-.09.43A1.51,1.51,0,0,1,336,460a4.28,4.28,0,0,1-.05-.92,1.69,1.69,0,0,1,.18-.91,1.45,1.45,0,0,1,.68-.66,1.71,1.71,0,0,1,.87-.14h2.28l5,.06a5,5,0,0,1,1,.06,1.38,1.38,0,0,1,.77.54,1.28,1.28,0,0,1,.25.77c0,.23,0,.44,0,.64,0,.82-.47,1.1-.45,1.07a1.54,1.54,0,0,0,.29-1.07,2.07,2.07,0,0,0-.25-1.28,1.22,1.22,0,0,0-.66-.43,6,6,0,0,0-1,0l-5,.06h-2.28a1.24,1.24,0,0,0-.68.11,1.1,1.1,0,0,0-.59,1.17,3.81,3.81,0,0,0,0,.79,1,1,0,0,0,.42.57l.45.32-.55.11-3.9.75.21-.25v2.13l-.17-.24,4.22,1.5.11,0,0,.11.19.47,1.76,4.37.43,1.06a1.67,1.67,0,0,0,.57.78,1.63,1.63,0,0,0,1.78.09,1.54,1.54,0,0,0,.63-.66c.13-.27.26-.63.39-.93l.74-1.85,1.38-3.39,0-.1.1,0,4.23-1-.12.16c0-1,0-2,0-2.75l.09.11c-1-.22-1.74-.42-2.23-.55S346.52,460.49,346.54,460.49Z" style="fill: rgb(38, 50, 56); transform-origin: 341.045px 464.858px;" id="eli77wggrg40o" class="animable"></path><circle cx="340.92" cy="470.11" r="1" style="fill: rgb(38, 50, 56); transform-origin: 340.92px 470.11px;" id="elaoirdlsbnww" class="animable"></circle><g id="ela4pv7yzubif"><circle cx="475.61" cy="469.13" r="9.48" style="fill: rgb(38, 50, 56); transform-origin: 475.61px 469.13px; transform: rotate(-77.23deg);" class="animable"></circle></g><path d="M481.64,459.26a1.25,1.25,0,0,0,.37-.89v-1a1.29,1.29,0,0,0-1.28-1.28h-9a1.28,1.28,0,0,0-1.28,1.28v1a1.25,1.25,0,0,0,.53,1l-4.11.78v2.28l4.5,1.61,2.58,6.38a2,2,0,0,0,3.7,0l2.58-6.47,4.51-1.09v-2.94Z" style="fill: rgb(224, 224, 224); transform-origin: 475.805px 463.875px;" id="eljnlvu4qaumi" class="animable"></path><path d="M481.64,459.26s.32.05.87.14l2.29.41h.1v.1c0,.84,0,1.83,0,2.94V463l-.12,0-4.5,1.13.14-.12c-.44,1.14-.92,2.36-1.43,3.64-.25.65-.51,1.31-.78,2-.14.35-.25.67-.42,1a2.28,2.28,0,0,1-.86.91,2.25,2.25,0,0,1-2.47-.13,2.36,2.36,0,0,1-.79-1.06c-.15-.38-.3-.75-.46-1.13l-1.89-4.68-.19-.47.15.14-4.5-1.61-.17-.06V460l.2,0,4.12-.76-.1.43a1.52,1.52,0,0,1-.59-.91,6.46,6.46,0,0,1,0-1,2,2,0,0,1,.16-1,1.5,1.5,0,0,1,.73-.7,2,2,0,0,1,.93-.13h.84l1.6,0,5.41.05a8.1,8.1,0,0,1,1.1,0,1.35,1.35,0,0,1,.83.57,1.39,1.39,0,0,1,.24.83l0,.68a1.51,1.51,0,0,1-.21.92.76.76,0,0,1-.23.24,1.56,1.56,0,0,0,.29-1.16c-.05-.4.08-1-.25-1.38a1.16,1.16,0,0,0-.71-.45,7.07,7.07,0,0,0-1,0l-5.41.05h-2.44a1.61,1.61,0,0,0-.75.1,1.08,1.08,0,0,0-.51.5,1.56,1.56,0,0,0-.1.78,7.78,7.78,0,0,0,0,.86,1.07,1.07,0,0,0,.42.62l.45.32-.54.11-4.12.79.21-.25v2.28l-.17-.24,4.51,1.6.11,0,0,.11.19.48c.65,1.59,1.28,3.16,1.89,4.68l.45,1.13a1.77,1.77,0,0,0,2.54,1,1.78,1.78,0,0,0,.68-.71c.14-.3.28-.68.41-1,.28-.68.54-1.34.8-2l1.48-3.63,0-.1.1,0,4.51-1.05-.12.15c0-1.11,0-2.1,0-2.94l.09.12c-1-.24-1.83-.44-2.35-.58A7,7,0,0,1,481.64,459.26Z" style="fill: rgb(38, 50, 56); transform-origin: 475.755px 463.894px;" id="eloqwdjcgwifm" class="animable"></path><path d="M476.68,469.53a1.08,1.08,0,1,1-1.07-1.07A1.07,1.07,0,0,1,476.68,469.53Z" style="fill: rgb(38, 50, 56); transform-origin: 475.6px 469.54px;" id="el2bhvw23tlsx" class="animable"></path><path d="M447.89,399.87a4.26,4.26,0,0,1-.82.09l-2.37.13-8.71.46c-7.35.39-17.51,1-28.72,1.74l-28.73,1.87-8.7.49-2.37.11a5.77,5.77,0,0,1-.83,0,4.14,4.14,0,0,1,.82-.11l2.36-.2,8.7-.66c7.35-.54,17.5-1.28,28.71-2s21.38-1.3,28.74-1.6c3.68-.16,6.66-.25,8.72-.29l2.38,0A7.33,7.33,0,0,1,447.89,399.87Z" style="fill: rgb(38, 50, 56); transform-origin: 407.265px 402.322px;" id="elqnqih4i12v" class="animable"></path><path d="M314.07,194.65s-13.8,4.76-18.66,14.11c-2.67,5.15-10.31,34.82-10.31,34.82l-5.44,27.47-12.44,33.33s4.94,5.4,27.51,8,34.71,6.08,34.71,6.08,1.91-29.62,3.93-41.57,6.8-47.63,6.66-51-3.76-19-3.76-19a108,108,0,0,1-11.67-6.36A90.71,90.71,0,0,0,314.07,194.65Z" style="fill: rgb(38, 50, 56); transform-origin: 303.627px 256.555px;" id="elvq1678q65gp" class="animable"></path><g id="eldvpivyn0rgc"><g style="opacity: 0.3; transform-origin: 308.16px 282.08px;" class="animable"><path d="M282.23,266a55.76,55.76,0,0,0,10.1,9.7c6.26,4.67,34.63,22.46,34.63,22.46l7.13-7.57Z" id="el3py4ijt4qof" class="animable" style="transform-origin: 308.16px 282.08px;"></path></g></g><path d="M297.73,210.19s-16.85,49.25-16.05,54.57,27.21,17,44.67,26.17l8.33-9.52-29.9-23s16.89-37.63,18.22-44-4.25-16-8.77-16.5S297.73,210.19,297.73,210.19Z" style="fill: rgb(255, 191, 157); transform-origin: 308.166px 244.413px;" id="elxuiffubi5l" class="animable"></path><path d="M313.93,197.23c-8.55-.82-14.12,6.1-17.66,12.44S285.56,241,285.56,241l28.37,8.64c.74-.75,10.32-28.87,10.62-34.77S322.49,198.05,313.93,197.23Z" style="fill: rgb(38, 50, 56); transform-origin: 305.067px 223.402px;" id="elkp4hgqnw8u" class="animable"></path><path d="M313.93,197.23a2.08,2.08,0,0,1,.29,0l.86.13a9.36,9.36,0,0,1,3.11,1.22,11.74,11.74,0,0,1,3.64,3.88,22.65,22.65,0,0,1,2.44,15.35c-.65,3.08-1.57,6.31-2.58,9.73s-2.14,7-3.37,10.7q-.92,2.79-1.92,5.67c-.35,1-.69,1.93-1,2.9-.18.49-.37,1-.55,1.46a11,11,0,0,1-.69,1.52l-.08.12-.18-.05L301.08,246l-15.6-4.76-.24-.07.07-.24c2.26-7.73,4.5-14.91,6.72-21.31a93.08,93.08,0,0,1,3.5-8.91,37.41,37.41,0,0,1,4.49-6.92,21.38,21.38,0,0,1,5-4.49,14.13,14.13,0,0,1,4.66-1.9,10.15,10.15,0,0,1,1.81-.24,8.68,8.68,0,0,1,1.33,0l.82.06.27,0a19.68,19.68,0,0,0-4.2.34,14.48,14.48,0,0,0-4.56,1.94,21.87,21.87,0,0,0-4.9,4.49,37.51,37.51,0,0,0-4.39,6.88,93.28,93.28,0,0,0-3.43,8.88c-2.19,6.4-4.41,13.59-6.65,21.31l-.17-.32,15.6,4.75L314,249.4l-.17.15c2.88-7.76,5.37-15.34,7.42-22.11,1-3.4,2-6.63,2.62-9.68a22.53,22.53,0,0,0-2.27-15.13,11.77,11.77,0,0,0-3.51-3.87,9.82,9.82,0,0,0-3-1.28l-.84-.17A1.09,1.09,0,0,1,313.93,197.23Z" style="fill: rgb(38, 50, 56); transform-origin: 304.964px 223.522px;" id="eli227lacsch" class="animable"></path><path d="M338.32,308.53a1.5,1.5,0,0,1-1.23-.64l-6.61-9.46a1.5,1.5,0,0,1,2.46-1.72l6.61,9.46a1.49,1.49,0,0,1-.37,2.09A1.44,1.44,0,0,1,338.32,308.53Z" style="fill: rgb(224, 224, 224); transform-origin: 335.018px 302.301px;" id="el9th2jtyyw9q" class="animable"></path><path d="M337.58,298.91a6.81,6.81,0,1,1-6.81-6.81A6.81,6.81,0,0,1,337.58,298.91Z" style="fill: rgb(69, 90, 100); transform-origin: 330.77px 298.91px;" id="el0c9morhz3cf" class="animable"></path><path d="M324,286.06s.68,4.29,1.78,5.86,2.59.82,4.23,1.3,2,1.16,2.26,2.19,1.55,8.13,2.8,9a1.28,1.28,0,0,0,2.12-.82c0-1-1.29-10.12-1.29-10.12s2.25,5.06,2.32,6.9.23,5.69,1.86,5.89c.88.11,1.43.12,1.7-1.44a32.87,32.87,0,0,0,.34-6.09c-.14-1.23-1-5.13-1-5.13s2.53,4.93,2.46,6-1.09,1.91-.41,2.73,2.26.48,2.87-.2a10,10,0,0,0,1.44-4.38,51.09,51.09,0,0,0-1.5-5.12s2.2,3.08,2.41,4.31,0,6,.72,6.6,2.12,1,2.46-.61a55.25,55.25,0,0,0,.55-7c0-1.51-3.82-7.27-4.57-8.36s-4.72-1.78-5.61-2.33-8.16-4.39-8.16-4.39Z" style="fill: rgb(255, 191, 157); transform-origin: 338.06px 293.576px;" id="elzelauqyxwwf" class="animable"></path><path d="M336.27,206.83a1.9,1.9,0,0,1,.21.51c.13.38.29.88.49,1.5.44,1.37,1,3.27,1.78,5.64h0a95.54,95.54,0,0,1,1,11.16c0,1.09,0,2.22,0,3.37s-.18,2.33-.27,3.53c-.21,2.39-.42,4.89-.65,7.45-.86,9.24-1.93,17.58-2.9,23.58-.47,3-.92,5.42-1.23,7.09l-.4,1.92a4.61,4.61,0,0,1-.17.66,2.7,2.7,0,0,1,.07-.68c.07-.49.17-1.13.3-1.93.26-1.74.62-4.16,1.07-7.11.87-6,1.89-14.35,2.74-23.58.23-2.56.45-5.05.67-7.45.09-1.19.19-2.36.28-3.5s.06-2.25,0-3.34a108.14,108.14,0,0,0-.83-11.11v0c-.68-2.39-1.23-4.31-1.63-5.69-.17-.63-.31-1.13-.41-1.53A3.65,3.65,0,0,1,336.27,206.83Z" style="fill: rgb(38, 50, 56); transform-origin: 336.94px 240.035px;" id="elccspwr4tocm" class="animable"></path></g><defs>     <filter id="active" height="200%">         <feMorphology in="SourceAlpha" result="DILATED" operator="dilate" radius="2"></feMorphology>                <feFlood flood-color="#32DFEC" flood-opacity="1" result="PINK"></feFlood>        <feComposite in="PINK" in2="DILATED" operator="in" result="OUTLINE"></feComposite>        <feMerge>            <feMergeNode in="OUTLINE"></feMergeNode>            <feMergeNode in="SourceGraphic"></feMergeNode>        </feMerge>    </filter>    <filter id="hover" height="200%">        <feMorphology in="SourceAlpha" result="DILATED" operator="dilate" radius="2"></feMorphology>                <feFlood flood-color="#ff0000" flood-opacity="0.5" result="PINK"></feFlood>        <feComposite in="PINK" in2="DILATED" operator="in" result="OUTLINE"></feComposite>        <feMerge>            <feMergeNode in="OUTLINE"></feMergeNode>            <feMergeNode in="SourceGraphic"></feMergeNode>        </feMerge>            <feColorMatrix type="matrix" values="0   0   0   0   0                0   1   0   0   0                0   0   0   0   0                0   0   0   1   0 "></feColorMatrix>    </filter></defs></svg>